<svg xmlns="http://www.w3.org/2000/svg" version="1.1" xmlns:xlink="http://www.w3.org/1999/xlink" xmlns:svgjs="http://svgjs.com/svgjs" width="1440" height="560" preserveAspectRatio="none" viewBox="0 0 1440 560"><g mask="url(&quot;#SvgjsMask1257&quot;)" fill="none"><rect width="1440" height="560" x="0" y="0" fill="rgba(20, 61, 56, 1)"></rect><g mask="url(&quot;#SvgjsMask1258&quot;)"><path d="M755 275L765 285L775 295L785 295L795 295M595 265L605 275L615 275L625 285L635 295L645 295L655 295L665 295L675 295L685 295L695 295L705 295L715 295L725 295L735 295L745 295L755 295L765 295L775 305L785 305L795 305M115 265L125 275L135 275L145 275L155 275M565 265L575 255L585 255L595 255L605 255L615 255L625 255L635 255L645 255L655 255L665 265L675 265L685 265L695 265L705 265M735 275L745 285L755 285M385 265L395 255M185 255L195 265L205 265L215 265M715 275L725 265L735 265L745 265M35 285L45 295L55 295M465 265L475 275L485 275L495 275M585 265L595 275L605 285L615 285L625 295L635 305L645 305L655 305L665 305L675 305L685 305L695 305L705 305L715 315L725 315L735 315L745 315L755 315L765 315M855 275L865 275L875 275L885 275L895 275L905 275L915 275L925 275L935 275L945 275M515 265L525 255L535 255L545 255M645 275L655 265M295 255L305 265L315 265L325 265L335 265L345 275L355 275M345 265L355 255L365 255L375 255L385 255L395 245L405 245L415 245L425 245L435 245L445 245L455 245L465 245L475 245M795 275L805 265M435 265L445 255M155 255L165 265L175 265L185 265L195 275L205 275L215 275L225 275L235 275L245 275L255 275L265 275M725 275L735 285M305 255L315 245L325 245L335 245L345 245L355 245L365 245L375 245L385 245M575 265L585 275L595 285L605 295L615 295L625 305M-5 285L5 285L15 285L25 285L35 285L45 285L55 285L65 285L75 275L85 275L95 265L105 265L115 265L125 265L135 265L145 255L155 255L165 255L175 255L185 255L195 255L205 255L215 255L225 255L235 255L245 255L255 255L265 255L275 255L285 255L295 255L305 255L315 255L325 255L335 255L345 265L355 265L365 265L375 265L385 265L395 265L405 265L415 265L425 265L435 265L445 265L455 265L465 265L475 265L485 265L495 265L505 265L515 265L525 265L535 265L545 265L555 265L565 265L575 265L585 265L595 265L605 265L615 265L625 275L635 275L645 275L655 275L665 275L675 275L685 275L695 275L705 275L715 275L725 275L735 275L745 275L755 275L765 275L775 275L785 275L795 275L805 275L815 275L825 275L835 275L845 275L855 275L865 265L875 265L885 265" stroke="rgba(78, 135, 140, 1)" stroke-width="1.67"></path><path d="M882.5 265 a2.5 2.5 0 1 0 5 0 a2.5 2.5 0 1 0 -5 0zM792.5 295 a2.5 2.5 0 1 0 5 0 a2.5 2.5 0 1 0 -5 0zM792.5 305 a2.5 2.5 0 1 0 5 0 a2.5 2.5 0 1 0 -5 0zM152.5 275 a2.5 2.5 0 1 0 5 0 a2.5 2.5 0 1 0 -5 0zM702.5 265 a2.5 2.5 0 1 0 5 0 a2.5 2.5 0 1 0 -5 0zM752.5 285 a2.5 2.5 0 1 0 5 0 a2.5 2.5 0 1 0 -5 0zM392.5 255 a2.5 2.5 0 1 0 5 0 a2.5 2.5 0 1 0 -5 0zM212.5 265 a2.5 2.5 0 1 0 5 0 a2.5 2.5 0 1 0 -5 0zM742.5 265 a2.5 2.5 0 1 0 5 0 a2.5 2.5 0 1 0 -5 0zM52.5 295 a2.5 2.5 0 1 0 5 0 a2.5 2.5 0 1 0 -5 0zM492.5 275 a2.5 2.5 0 1 0 5 0 a2.5 2.5 0 1 0 -5 0zM762.5 315 a2.5 2.5 0 1 0 5 0 a2.5 2.5 0 1 0 -5 0zM942.5 275 a2.5 2.5 0 1 0 5 0 a2.5 2.5 0 1 0 -5 0zM542.5 255 a2.5 2.5 0 1 0 5 0 a2.5 2.5 0 1 0 -5 0zM652.5 265 a2.5 2.5 0 1 0 5 0 a2.5 2.5 0 1 0 -5 0zM352.5 275 a2.5 2.5 0 1 0 5 0 a2.5 2.5 0 1 0 -5 0zM472.5 245 a2.5 2.5 0 1 0 5 0 a2.5 2.5 0 1 0 -5 0zM802.5 265 a2.5 2.5 0 1 0 5 0 a2.5 2.5 0 1 0 -5 0zM442.5 255 a2.5 2.5 0 1 0 5 0 a2.5 2.5 0 1 0 -5 0zM262.5 275 a2.5 2.5 0 1 0 5 0 a2.5 2.5 0 1 0 -5 0zM732.5 285 a2.5 2.5 0 1 0 5 0 a2.5 2.5 0 1 0 -5 0zM382.5 245 a2.5 2.5 0 1 0 5 0 a2.5 2.5 0 1 0 -5 0zM622.5 305 a2.5 2.5 0 1 0 5 0 a2.5 2.5 0 1 0 -5 0z" fill="rgba(78, 135, 140, 1)"></path><path d="M125 255L135 245M105 255L115 245L125 245M245 235L255 245L265 245L275 245L285 245L295 245L305 245M235 245L245 245M-5 275L5 275L15 275L25 275L35 275L45 275L55 275L65 275L75 265L85 265L95 255L105 255L115 255L125 255L135 255L145 245L155 245L165 245L175 245L185 245L195 245L205 245L215 245L225 245L235 245L245 235L255 235" stroke="rgba(101, 184, 145, 1)" stroke-width="1.67"></path><path d="M252.5 235 a2.5 2.5 0 1 0 5 0 a2.5 2.5 0 1 0 -5 0zM132.5 245 a2.5 2.5 0 1 0 5 0 a2.5 2.5 0 1 0 -5 0zM122.5 245 a2.5 2.5 0 1 0 5 0 a2.5 2.5 0 1 0 -5 0zM302.5 245 a2.5 2.5 0 1 0 5 0 a2.5 2.5 0 1 0 -5 0zM242.5 245 a2.5 2.5 0 1 0 5 0 a2.5 2.5 0 1 0 -5 0z" fill="rgba(101, 184, 145, 1)"></path><path d="M735 325L745 335L755 335M45 305L55 305L65 305L75 305L85 305L95 305L105 305L115 305L125 305L135 305L145 305L155 305L165 305L175 305L185 305L195 305L205 305L215 305L225 305L235 305L245 305L255 305M185 315L195 325L205 325L215 325L225 325M435 325L445 335L455 335L465 335L475 335L485 335L495 335L505 335L515 335L525 335L535 335L545 335L555 335L565 335L575 335L585 335L595 335L605 335L615 335L625 335L635 335L645 335L655 335L665 335M455 325L465 315L475 315L485 315L495 315L505 315L515 315L525 305L535 305L545 305L555 305L565 305L575 305L585 305M525 325L535 315L545 315L555 315L565 315L575 315L585 315L595 315L605 315L615 315M415 325L425 335L435 335M165 315L175 325L185 325M945 325L955 315L965 315L975 315L985 315L995 315L1005 315L1015 315M665 325L675 315L685 315L695 315L705 315M155 315L165 325M375 325L385 315L395 315L405 315L415 315L425 315L435 315M815 305L825 305L835 295L845 295L855 285L865 285L875 285L885 285L895 285L905 285L915 285L925 285L935 285L945 285L955 295L965 305L975 305L985 305L995 305M325 325L335 315L345 315M275 325L285 315L295 315L305 315L315 315M805 305L815 315L825 325L835 325L845 325L855 325L865 325L875 335L885 345L895 345M915 325L925 315M105 315L115 325L125 325L135 325L145 325L155 325M955 325L965 335L975 335L985 335L995 335L1005 335L1015 335M635 315L645 325M855 315L865 305L875 305L885 305L895 305L905 305L915 305L925 305M225 315L235 315M795 315L805 315M765 325L775 325L785 325L795 325L805 325L815 325L825 335L835 335L845 335L855 335L865 335L875 345L885 355M845 315L855 305L865 295L875 295L885 295L895 295L905 295L915 295L925 295L935 295L945 295L955 305M-5 295L5 295L15 295L25 295L35 305L45 305L55 315L65 315L75 315L85 315L95 315L105 315L115 315L125 315L135 315L145 315L155 315L165 315L175 315L185 315L195 315L205 315L215 315L225 315L235 325L245 325L255 325L265 325L275 325L285 325L295 325L305 325L315 325L325 325L335 325L345 325L355 325L365 325L375 325L385 325L395 325L405 325L415 325L425 325L435 325L445 325L455 325L465 325L475 325L485 325L495 325L505 325L515 325L525 325L535 325L545 325L555 325L565 325L575 325L585 325L595 325L605 325L615 325L625 315L635 315L645 315L655 325L665 325L675 325L685 325L695 325L705 325L715 325L725 325L735 325L745 325L755 325L765 325L775 315L785 315L795 315L805 305L815 305L825 315L835 315L845 315L855 315L865 315L875 325L885 325L895 325L905 325L915 325L925 325L935 325L945 325L955 325L965 325L975 325L985 325L995 325L1005 325" stroke="rgba(78, 135, 140, 1)" stroke-width="1.67"></path><path d="M1002.5 325 a2.5 2.5 0 1 0 5 0 a2.5 2.5 0 1 0 -5 0zM752.5 335 a2.5 2.5 0 1 0 5 0 a2.5 2.5 0 1 0 -5 0zM252.5 305 a2.5 2.5 0 1 0 5 0 a2.5 2.5 0 1 0 -5 0zM222.5 325 a2.5 2.5 0 1 0 5 0 a2.5 2.5 0 1 0 -5 0zM662.5 335 a2.5 2.5 0 1 0 5 0 a2.5 2.5 0 1 0 -5 0zM582.5 305 a2.5 2.5 0 1 0 5 0 a2.5 2.5 0 1 0 -5 0zM612.5 315 a2.5 2.5 0 1 0 5 0 a2.5 2.5 0 1 0 -5 0zM432.5 335 a2.5 2.5 0 1 0 5 0 a2.5 2.5 0 1 0 -5 0zM182.5 325 a2.5 2.5 0 1 0 5 0 a2.5 2.5 0 1 0 -5 0zM1012.5 315 a2.5 2.5 0 1 0 5 0 a2.5 2.5 0 1 0 -5 0zM702.5 315 a2.5 2.5 0 1 0 5 0 a2.5 2.5 0 1 0 -5 0zM162.5 325 a2.5 2.5 0 1 0 5 0 a2.5 2.5 0 1 0 -5 0zM432.5 315 a2.5 2.5 0 1 0 5 0 a2.5 2.5 0 1 0 -5 0zM992.5 305 a2.5 2.5 0 1 0 5 0 a2.5 2.5 0 1 0 -5 0zM342.5 315 a2.5 2.5 0 1 0 5 0 a2.5 2.5 0 1 0 -5 0zM312.5 315 a2.5 2.5 0 1 0 5 0 a2.5 2.5 0 1 0 -5 0zM892.5 345 a2.5 2.5 0 1 0 5 0 a2.5 2.5 0 1 0 -5 0zM922.5 315 a2.5 2.5 0 1 0 5 0 a2.5 2.5 0 1 0 -5 0zM152.5 325 a2.5 2.5 0 1 0 5 0 a2.5 2.5 0 1 0 -5 0zM1012.5 335 a2.5 2.5 0 1 0 5 0 a2.5 2.5 0 1 0 -5 0zM642.5 325 a2.5 2.5 0 1 0 5 0 a2.5 2.5 0 1 0 -5 0zM922.5 305 a2.5 2.5 0 1 0 5 0 a2.5 2.5 0 1 0 -5 0zM232.5 315 a2.5 2.5 0 1 0 5 0 a2.5 2.5 0 1 0 -5 0zM802.5 315 a2.5 2.5 0 1 0 5 0 a2.5 2.5 0 1 0 -5 0zM882.5 355 a2.5 2.5 0 1 0 5 0 a2.5 2.5 0 1 0 -5 0zM952.5 305 a2.5 2.5 0 1 0 5 0 a2.5 2.5 0 1 0 -5 0z" fill="rgba(78, 135, 140, 1)"></path><path d="M125 235L135 225M175 235L185 225M525 235L535 225L545 225L555 225L565 225M625 235L635 225L645 225L655 225L665 225L675 225L685 225L695 225L705 225L715 225L725 225L735 225L745 225L755 225L765 225L775 225L785 225L795 225L805 225L815 225L825 225L835 225L845 225L855 225L865 225L875 215L885 215L895 215L905 225L915 225L925 225M665 235L675 235L685 235L695 235L705 235L715 235L725 235L735 235L745 235L755 235L765 235L775 235M95 245L105 245M275 225L285 225L295 225L305 225L315 225L325 225L335 225M545 235L555 245L565 245L575 245M485 235L495 245L505 245L515 245L525 245L535 245L545 245M785 235L795 245L805 245L815 245L825 245L835 245L845 245L855 245L865 245L875 245L885 245L895 245L905 245L915 245L925 245L935 245L945 245L955 245L965 245L975 245L985 245M655 235L665 245L675 255L685 255L695 255L705 255L715 255L725 255L735 255L745 255L755 255L765 255L775 255M115 235L125 225M515 235L525 225M605 215L615 215L625 215M935 235L945 225L955 225L965 225L975 225L985 225L995 225L1005 225L1015 225M885 235L895 225M145 235L155 225M565 235L575 235M595 215L605 225L615 235L625 245L635 245L645 245L655 245M575 225L585 225L595 225L605 235M775 245L785 245M265 225L275 235M165 235L175 225M875 235L885 225M-5 265L5 265L15 265L25 265L35 265L45 265L55 265L65 265L75 255L85 255L95 245L105 235L115 235L125 235L135 235L145 235L155 235L165 235L175 235L185 235L195 235L205 235L215 235L225 235L235 235L245 225L255 225L265 225L275 225L285 235L295 235L305 235L315 235L325 235L335 235L345 235L355 235L365 235L375 235L385 235L395 235L405 235L415 235L425 235L435 235L445 235L455 235L465 235L475 235L485 235L495 235L505 235L515 235L525 235L535 235L545 235L555 235L565 235L575 225L585 215L595 215L605 215L615 225L625 235L635 235L645 235L655 235L665 235L675 245L685 245L695 245L705 245L715 245L725 245L735 245L745 245L755 245L765 245L775 245L785 235L795 235L805 235L815 235L825 235L835 235L845 235L855 235L865 235L875 235L885 235L895 235L905 235L915 235L925 235L935 235L945 235" stroke="rgba(101, 184, 145, 1)" stroke-width="1.67"></path><path d="M942.5 235 a2.5 2.5 0 1 0 5 0 a2.5 2.5 0 1 0 -5 0zM132.5 225 a2.5 2.5 0 1 0 5 0 a2.5 2.5 0 1 0 -5 0zM182.5 225 a2.5 2.5 0 1 0 5 0 a2.5 2.5 0 1 0 -5 0zM562.5 225 a2.5 2.5 0 1 0 5 0 a2.5 2.5 0 1 0 -5 0zM922.5 225 a2.5 2.5 0 1 0 5 0 a2.5 2.5 0 1 0 -5 0zM772.5 235 a2.5 2.5 0 1 0 5 0 a2.5 2.5 0 1 0 -5 0zM102.5 245 a2.5 2.5 0 1 0 5 0 a2.5 2.5 0 1 0 -5 0zM332.5 225 a2.5 2.5 0 1 0 5 0 a2.5 2.5 0 1 0 -5 0zM572.5 245 a2.5 2.5 0 1 0 5 0 a2.5 2.5 0 1 0 -5 0zM542.5 245 a2.5 2.5 0 1 0 5 0 a2.5 2.5 0 1 0 -5 0zM982.5 245 a2.5 2.5 0 1 0 5 0 a2.5 2.5 0 1 0 -5 0zM772.5 255 a2.5 2.5 0 1 0 5 0 a2.5 2.5 0 1 0 -5 0zM122.5 225 a2.5 2.5 0 1 0 5 0 a2.5 2.5 0 1 0 -5 0zM522.5 225 a2.5 2.5 0 1 0 5 0 a2.5 2.5 0 1 0 -5 0zM622.5 215 a2.5 2.5 0 1 0 5 0 a2.5 2.5 0 1 0 -5 0zM1012.5 225 a2.5 2.5 0 1 0 5 0 a2.5 2.5 0 1 0 -5 0zM892.5 225 a2.5 2.5 0 1 0 5 0 a2.5 2.5 0 1 0 -5 0zM152.5 225 a2.5 2.5 0 1 0 5 0 a2.5 2.5 0 1 0 -5 0zM572.5 235 a2.5 2.5 0 1 0 5 0 a2.5 2.5 0 1 0 -5 0zM652.5 245 a2.5 2.5 0 1 0 5 0 a2.5 2.5 0 1 0 -5 0zM602.5 235 a2.5 2.5 0 1 0 5 0 a2.5 2.5 0 1 0 -5 0zM782.5 245 a2.5 2.5 0 1 0 5 0 a2.5 2.5 0 1 0 -5 0zM272.5 235 a2.5 2.5 0 1 0 5 0 a2.5 2.5 0 1 0 -5 0zM172.5 225 a2.5 2.5 0 1 0 5 0 a2.5 2.5 0 1 0 -5 0zM882.5 225 a2.5 2.5 0 1 0 5 0 a2.5 2.5 0 1 0 -5 0z" fill="rgba(101, 184, 145, 1)"></path><path d="M375 345L385 335L395 335L405 335L415 335M395 345L405 355L415 355L425 355L435 355L445 355L455 365L465 365L475 365L485 365L495 365L505 365L515 365L525 365L535 365L545 365L555 375L565 375L575 375L585 375L595 375L605 375L615 375L625 365L635 365M225 335L235 345L245 345L255 345L265 345L275 345L285 345L295 345L305 345L315 345L325 345L335 345L345 355L355 355L365 355M575 355L585 365L595 365L605 365L615 365M465 355L475 345M75 335L85 325L95 325L105 325M665 355L675 345L685 345L695 345L705 345L715 345L725 345L735 345L745 345L755 345L765 345L775 345L785 345L795 345L805 345L815 345L825 345L835 345L845 345L855 345L865 345L875 355L885 365L895 375L905 385L915 395L925 395L935 395L945 395L955 395L965 395L975 395M485 355L495 345L505 345L515 345L525 345L535 345L545 345L555 345L565 345L575 345L585 345L595 345L605 345L615 345L625 345L635 345L645 345L655 345L665 345M65 335L75 325M815 365L825 355L835 355L845 355L855 355L865 355M355 345L365 335L375 335M345 345L355 335M695 355L705 365L715 365L725 365M725 355L735 355L745 355L755 355M755 365L765 375L775 375L785 375M335 335L345 335M775 365L785 355L795 355L805 355L815 355M825 365L835 375L845 375L855 375L865 375L875 375L885 375L895 385L905 395L915 405L925 405L935 405L945 405L955 405L965 405L975 405L985 405L995 405L1005 405L1015 405M385 345L395 355L405 365L415 365L425 365L435 365L445 365L455 375L465 375M445 345L455 345L465 345M795 365L805 375L815 375L825 375L835 385L845 385L855 385L865 385L875 385L885 395L895 395M555 355L565 365L575 365M-5 305L5 305L15 305L25 305L35 315L45 315L55 325L65 335L75 335L85 335L95 335L105 335L115 335L125 335L135 335L145 335L155 335L165 335L175 335L185 335L195 335L205 335L215 335L225 335L235 335L245 335L255 335L265 335L275 335L285 335L295 335L305 335L315 335L325 335L335 335L345 345L355 345L365 345L375 345L385 345L395 345L405 345L415 345L425 345L435 345L445 345L455 355L465 355L475 355L485 355L495 355L505 355L515 355L525 355L535 355L545 355L555 355L565 355L575 355L585 355L595 355L605 355L615 355L625 355L635 355L645 355L655 355L665 355L675 355L685 355L695 355L705 355L715 355L725 355L735 365L745 365L755 365L765 365L775 365L785 365L795 365L805 365L815 365L825 365L835 365L845 365L855 365L865 365" stroke="rgba(78, 135, 140, 1)" stroke-width="1.67"></path><path d="M862.5 365 a2.5 2.5 0 1 0 5 0 a2.5 2.5 0 1 0 -5 0zM412.5 335 a2.5 2.5 0 1 0 5 0 a2.5 2.5 0 1 0 -5 0zM632.5 365 a2.5 2.5 0 1 0 5 0 a2.5 2.5 0 1 0 -5 0zM362.5 355 a2.5 2.5 0 1 0 5 0 a2.5 2.5 0 1 0 -5 0zM612.5 365 a2.5 2.5 0 1 0 5 0 a2.5 2.5 0 1 0 -5 0zM472.5 345 a2.5 2.5 0 1 0 5 0 a2.5 2.5 0 1 0 -5 0zM102.5 325 a2.5 2.5 0 1 0 5 0 a2.5 2.5 0 1 0 -5 0zM972.5 395 a2.5 2.5 0 1 0 5 0 a2.5 2.5 0 1 0 -5 0zM662.5 345 a2.5 2.5 0 1 0 5 0 a2.5 2.5 0 1 0 -5 0zM72.5 325 a2.5 2.5 0 1 0 5 0 a2.5 2.5 0 1 0 -5 0zM862.5 355 a2.5 2.5 0 1 0 5 0 a2.5 2.5 0 1 0 -5 0zM372.5 335 a2.5 2.5 0 1 0 5 0 a2.5 2.5 0 1 0 -5 0zM352.5 335 a2.5 2.5 0 1 0 5 0 a2.5 2.5 0 1 0 -5 0zM722.5 365 a2.5 2.5 0 1 0 5 0 a2.5 2.5 0 1 0 -5 0zM752.5 355 a2.5 2.5 0 1 0 5 0 a2.5 2.5 0 1 0 -5 0zM782.5 375 a2.5 2.5 0 1 0 5 0 a2.5 2.5 0 1 0 -5 0zM342.5 335 a2.5 2.5 0 1 0 5 0 a2.5 2.5 0 1 0 -5 0zM812.5 355 a2.5 2.5 0 1 0 5 0 a2.5 2.5 0 1 0 -5 0zM1012.5 405 a2.5 2.5 0 1 0 5 0 a2.5 2.5 0 1 0 -5 0zM462.5 375 a2.5 2.5 0 1 0 5 0 a2.5 2.5 0 1 0 -5 0zM462.5 345 a2.5 2.5 0 1 0 5 0 a2.5 2.5 0 1 0 -5 0zM892.5 395 a2.5 2.5 0 1 0 5 0 a2.5 2.5 0 1 0 -5 0zM572.5 365 a2.5 2.5 0 1 0 5 0 a2.5 2.5 0 1 0 -5 0z" fill="rgba(78, 135, 140, 1)"></path><path d="M545 215L555 205L565 205L575 205M75 245L85 245M135 215L145 205L155 205L165 205L175 205L185 205L195 205L205 205M535 215L545 205M305 215L315 205L325 205L335 205L345 205L355 205L365 205L375 205L385 205L395 205L405 205L415 205M445 225L455 215L465 215L475 215M495 225L505 225L515 225M525 205L535 205M205 225L215 215L225 215L235 215L245 205M425 215L435 225M435 215L445 215M125 215L135 205M105 225L115 225M195 225L205 215M645 205L655 215L665 215L675 215L685 215L695 215L705 215L715 215L725 215L735 215L745 215L755 215L765 215L775 215L785 215L795 215L805 215L815 215L825 215M295 215L305 205L315 195M265 215L275 205L285 205L295 205L305 195M-5 255L5 255L15 255L25 255L35 255L45 255L55 255L65 255L75 245L85 235L95 235L105 225L115 215L125 215L135 215L145 215L155 215L165 215L175 215L185 215L195 225L205 225L215 225L225 225L235 225L245 215L255 215L265 215L275 215L285 215L295 215L305 215L315 215L325 215L335 215L345 225L355 225L365 225L375 225L385 225L395 225L405 225L415 225L425 215L435 215L445 225L455 225L465 225L475 225L485 225L495 225L505 215L515 205L525 205L535 215L545 215L555 215L565 215L575 215L585 205L595 205L605 205L615 205L625 205L635 205L645 205L655 205L665 205L675 205L685 205" stroke="rgba(101, 184, 145, 1)" stroke-width="1.67"></path><path d="M682.5 205 a2.5 2.5 0 1 0 5 0 a2.5 2.5 0 1 0 -5 0zM572.5 205 a2.5 2.5 0 1 0 5 0 a2.5 2.5 0 1 0 -5 0zM82.5 245 a2.5 2.5 0 1 0 5 0 a2.5 2.5 0 1 0 -5 0zM202.5 205 a2.5 2.5 0 1 0 5 0 a2.5 2.5 0 1 0 -5 0zM542.5 205 a2.5 2.5 0 1 0 5 0 a2.5 2.5 0 1 0 -5 0zM412.5 205 a2.5 2.5 0 1 0 5 0 a2.5 2.5 0 1 0 -5 0zM472.5 215 a2.5 2.5 0 1 0 5 0 a2.5 2.5 0 1 0 -5 0zM512.5 225 a2.5 2.5 0 1 0 5 0 a2.5 2.5 0 1 0 -5 0zM532.5 205 a2.5 2.5 0 1 0 5 0 a2.5 2.5 0 1 0 -5 0zM242.5 205 a2.5 2.5 0 1 0 5 0 a2.5 2.5 0 1 0 -5 0zM432.5 225 a2.5 2.5 0 1 0 5 0 a2.5 2.5 0 1 0 -5 0zM442.5 215 a2.5 2.5 0 1 0 5 0 a2.5 2.5 0 1 0 -5 0zM132.5 205 a2.5 2.5 0 1 0 5 0 a2.5 2.5 0 1 0 -5 0zM112.5 225 a2.5 2.5 0 1 0 5 0 a2.5 2.5 0 1 0 -5 0zM202.5 215 a2.5 2.5 0 1 0 5 0 a2.5 2.5 0 1 0 -5 0zM822.5 215 a2.5 2.5 0 1 0 5 0 a2.5 2.5 0 1 0 -5 0zM312.5 195 a2.5 2.5 0 1 0 5 0 a2.5 2.5 0 1 0 -5 0zM302.5 195 a2.5 2.5 0 1 0 5 0 a2.5 2.5 0 1 0 -5 0z" fill="rgba(101, 184, 145, 1)"></path><path d="M395 385L405 375L415 375L425 375L435 375M205 355L215 345M195 355L205 345M305 385L315 375M245 365L255 365L265 365L275 365L285 365L295 365L305 365L315 365L325 365M375 385L385 395L395 395L405 395L415 395L425 395L435 395L445 395L455 385L465 385L475 385L485 385M115 345L125 355L135 355M185 355L195 345M325 385L335 375L345 375L355 375L365 375M265 375L275 375L285 375M-5 315L5 315L15 315L25 325L35 325L45 325L55 335L65 345L75 345L85 345L95 345L105 345L115 345L125 345L135 345L145 345L155 345L165 345L175 345L185 355L195 355L205 355L215 355L225 355L235 355L245 365L255 375L265 375L275 385L285 385L295 385L305 385L315 385L325 385L335 385L345 385L355 385L365 385L375 385L385 385L395 385L405 385L415 385" stroke="rgba(78, 135, 140, 1)" stroke-width="1.67"></path><path d="M412.5 385 a2.5 2.5 0 1 0 5 0 a2.5 2.5 0 1 0 -5 0zM432.5 375 a2.5 2.5 0 1 0 5 0 a2.5 2.5 0 1 0 -5 0zM212.5 345 a2.5 2.5 0 1 0 5 0 a2.5 2.5 0 1 0 -5 0zM202.5 345 a2.5 2.5 0 1 0 5 0 a2.5 2.5 0 1 0 -5 0zM312.5 375 a2.5 2.5 0 1 0 5 0 a2.5 2.5 0 1 0 -5 0zM322.5 365 a2.5 2.5 0 1 0 5 0 a2.5 2.5 0 1 0 -5 0zM482.5 385 a2.5 2.5 0 1 0 5 0 a2.5 2.5 0 1 0 -5 0zM132.5 355 a2.5 2.5 0 1 0 5 0 a2.5 2.5 0 1 0 -5 0zM192.5 345 a2.5 2.5 0 1 0 5 0 a2.5 2.5 0 1 0 -5 0zM362.5 375 a2.5 2.5 0 1 0 5 0 a2.5 2.5 0 1 0 -5 0zM282.5 375 a2.5 2.5 0 1 0 5 0 a2.5 2.5 0 1 0 -5 0z" fill="rgba(78, 135, 140, 1)"></path><path d="M315 185L325 185L335 185L345 185L355 185L365 185L375 185L385 185L395 175L405 175L415 175L425 185L435 185L445 185L455 185L465 185L475 185L485 185M555 195L565 185M465 205L475 195L485 195L495 195L505 195M395 195L405 185L415 185M545 195L555 185M145 195L155 195L165 195L175 195L185 195L195 195L205 195L215 195L225 195L235 195L245 195L255 195L265 195L275 195L285 195L295 195L305 185M725 195L735 205L745 205L755 205L765 205L775 205L785 205L795 205M245 175L255 185L265 185L275 185L285 185L295 185M115 205L125 205M715 195L725 205M425 205L435 195L445 195L455 195L465 195M595 195L605 185M475 205L485 205L495 205M305 175L315 175L325 175L335 175L345 175L355 175L365 175L375 175L385 175M285 175L295 165L305 165L315 165L325 165M515 195L525 185L535 185L545 185M235 175L245 185M225 175L235 185M695 195L705 205L715 205M205 185L215 185L225 185M805 205L815 195L825 195L835 205L845 205L855 205L865 215M-5 245L5 245L15 245L25 245L35 245L45 245L55 245L65 245L75 235L85 225L95 225L105 215L115 205L125 195L135 195L145 195L155 185L165 185L175 185L185 185L195 185L205 185L215 175L225 175L235 175L245 175L255 175L265 175L275 175L285 175L295 175L305 175L315 185L325 195L335 195L345 195L355 195L365 195L375 195L385 195L395 195L405 195L415 195L425 205L435 205L445 205L455 205L465 205L475 205L485 215L495 215L505 205L515 195L525 195L535 195L545 195L555 195L565 195L575 195L585 195L595 195L605 195L615 195L625 195L635 195L645 195L655 195L665 195L675 195L685 195L695 195L705 195L715 195L725 195L735 195L745 195L755 195L765 195L775 195L785 195L795 195L805 205L815 205L825 205" stroke="rgba(181, 255, 225, 1)" stroke-width="1.67"></path><path d="M822.5 205 a2.5 2.5 0 1 0 5 0 a2.5 2.5 0 1 0 -5 0zM482.5 185 a2.5 2.5 0 1 0 5 0 a2.5 2.5 0 1 0 -5 0zM562.5 185 a2.5 2.5 0 1 0 5 0 a2.5 2.5 0 1 0 -5 0zM502.5 195 a2.5 2.5 0 1 0 5 0 a2.5 2.5 0 1 0 -5 0zM412.5 185 a2.5 2.5 0 1 0 5 0 a2.5 2.5 0 1 0 -5 0zM552.5 185 a2.5 2.5 0 1 0 5 0 a2.5 2.5 0 1 0 -5 0zM302.5 185 a2.5 2.5 0 1 0 5 0 a2.5 2.5 0 1 0 -5 0zM792.5 205 a2.5 2.5 0 1 0 5 0 a2.5 2.5 0 1 0 -5 0zM292.5 185 a2.5 2.5 0 1 0 5 0 a2.5 2.5 0 1 0 -5 0zM122.5 205 a2.5 2.5 0 1 0 5 0 a2.5 2.5 0 1 0 -5 0zM722.5 205 a2.5 2.5 0 1 0 5 0 a2.5 2.5 0 1 0 -5 0zM462.5 195 a2.5 2.5 0 1 0 5 0 a2.5 2.5 0 1 0 -5 0zM602.5 185 a2.5 2.5 0 1 0 5 0 a2.5 2.5 0 1 0 -5 0zM492.5 205 a2.5 2.5 0 1 0 5 0 a2.5 2.5 0 1 0 -5 0zM382.5 175 a2.5 2.5 0 1 0 5 0 a2.5 2.5 0 1 0 -5 0zM322.5 165 a2.5 2.5 0 1 0 5 0 a2.5 2.5 0 1 0 -5 0zM542.5 185 a2.5 2.5 0 1 0 5 0 a2.5 2.5 0 1 0 -5 0zM242.5 185 a2.5 2.5 0 1 0 5 0 a2.5 2.5 0 1 0 -5 0zM232.5 185 a2.5 2.5 0 1 0 5 0 a2.5 2.5 0 1 0 -5 0zM712.5 205 a2.5 2.5 0 1 0 5 0 a2.5 2.5 0 1 0 -5 0zM222.5 185 a2.5 2.5 0 1 0 5 0 a2.5 2.5 0 1 0 -5 0zM862.5 215 a2.5 2.5 0 1 0 5 0 a2.5 2.5 0 1 0 -5 0z" fill="rgba(181, 255, 225, 1)"></path><path d="M305 395L315 405M455 395L465 405L475 405L485 405L495 405L505 405L515 395L525 385L535 385L545 395L555 395L565 395L575 395M435 405L445 415M445 405L455 405M365 405L375 395M335 395L345 405L355 405M355 395L365 395M105 365L115 355M325 395L335 405M155 355L165 365L175 365M125 365L135 375M145 355L155 365L165 375L175 375M-5 325L5 325L15 325L25 335L35 335L45 335L55 345L65 355L75 355L85 355L95 355L105 365L115 365L125 365L135 365L145 355L155 355L165 355L175 355L185 365L195 365L205 365L215 365L225 365L235 365L245 375L255 385L265 385L275 395L285 395L295 395L305 395L315 395L325 395L335 395L345 395L355 395L365 405L375 405L385 405L395 405L405 405L415 405L425 405L435 405L445 405L455 395L465 395" stroke="rgba(78, 135, 140, 1)" stroke-width="1.67"></path><path d="M462.5 395 a2.5 2.5 0 1 0 5 0 a2.5 2.5 0 1 0 -5 0zM312.5 405 a2.5 2.5 0 1 0 5 0 a2.5 2.5 0 1 0 -5 0zM572.5 395 a2.5 2.5 0 1 0 5 0 a2.5 2.5 0 1 0 -5 0zM442.5 415 a2.5 2.5 0 1 0 5 0 a2.5 2.5 0 1 0 -5 0zM452.5 405 a2.5 2.5 0 1 0 5 0 a2.5 2.5 0 1 0 -5 0zM372.5 395 a2.5 2.5 0 1 0 5 0 a2.5 2.5 0 1 0 -5 0zM352.5 405 a2.5 2.5 0 1 0 5 0 a2.5 2.5 0 1 0 -5 0zM362.5 395 a2.5 2.5 0 1 0 5 0 a2.5 2.5 0 1 0 -5 0zM112.5 355 a2.5 2.5 0 1 0 5 0 a2.5 2.5 0 1 0 -5 0zM332.5 405 a2.5 2.5 0 1 0 5 0 a2.5 2.5 0 1 0 -5 0zM172.5 365 a2.5 2.5 0 1 0 5 0 a2.5 2.5 0 1 0 -5 0zM132.5 375 a2.5 2.5 0 1 0 5 0 a2.5 2.5 0 1 0 -5 0zM172.5 375 a2.5 2.5 0 1 0 5 0 a2.5 2.5 0 1 0 -5 0z" fill="rgba(78, 135, 140, 1)"></path><path d="M345 165L355 155L365 155L375 155L385 155L395 155L405 155L415 155M705 185L715 175L725 175L735 175L745 175L755 175L765 175L775 175L785 175L795 175L805 175L815 175L825 175M415 165L425 165L435 165L445 165L455 165L465 165L475 165L485 165L495 165L505 165L515 165L525 165L535 165M275 155L285 165M325 155L335 155L345 155M665 185L675 175L685 175L695 175L705 175M505 175L515 185M585 185L595 185M655 185L665 175M265 165L275 165M545 175L555 165L565 165L575 165L585 165L595 165M605 175L615 175L625 175L635 175L645 175L655 175M575 185L585 175M495 175L505 185M-5 235L5 235L15 235L25 235L35 235L45 235L55 235L65 235L75 225L85 215L95 215L105 205L115 195L125 185L135 185L145 185L155 175L165 175L175 175L185 175L195 175L205 175L215 165L225 165L235 165L245 165L255 165L265 165L275 155L285 155L295 155L305 155L315 155L325 155L335 165L345 165L355 165L365 165L375 165L385 165L395 165L405 165L415 165L425 175L435 175L445 175L455 175L465 175L475 175L485 175L495 175L505 175L515 175L525 175L535 175L545 175L555 175L565 175L575 185L585 185L595 175L605 175L615 185L625 185L635 185L645 185L655 185L665 185L675 185L685 185L695 185L705 185L715 185L725 185L735 185L745 185L755 185L765 185L775 185" stroke="rgba(181, 255, 225, 1)" stroke-width="1.67"></path><path d="M772.5 185 a2.5 2.5 0 1 0 5 0 a2.5 2.5 0 1 0 -5 0zM412.5 155 a2.5 2.5 0 1 0 5 0 a2.5 2.5 0 1 0 -5 0zM822.5 175 a2.5 2.5 0 1 0 5 0 a2.5 2.5 0 1 0 -5 0zM532.5 165 a2.5 2.5 0 1 0 5 0 a2.5 2.5 0 1 0 -5 0zM282.5 165 a2.5 2.5 0 1 0 5 0 a2.5 2.5 0 1 0 -5 0zM342.5 155 a2.5 2.5 0 1 0 5 0 a2.5 2.5 0 1 0 -5 0zM702.5 175 a2.5 2.5 0 1 0 5 0 a2.5 2.5 0 1 0 -5 0zM512.5 185 a2.5 2.5 0 1 0 5 0 a2.5 2.5 0 1 0 -5 0zM592.5 185 a2.5 2.5 0 1 0 5 0 a2.5 2.5 0 1 0 -5 0zM662.5 175 a2.5 2.5 0 1 0 5 0 a2.5 2.5 0 1 0 -5 0zM272.5 165 a2.5 2.5 0 1 0 5 0 a2.5 2.5 0 1 0 -5 0zM592.5 165 a2.5 2.5 0 1 0 5 0 a2.5 2.5 0 1 0 -5 0zM652.5 175 a2.5 2.5 0 1 0 5 0 a2.5 2.5 0 1 0 -5 0zM582.5 175 a2.5 2.5 0 1 0 5 0 a2.5 2.5 0 1 0 -5 0zM502.5 185 a2.5 2.5 0 1 0 5 0 a2.5 2.5 0 1 0 -5 0z" fill="rgba(181, 255, 225, 1)"></path><path d="M225 375L235 385M335 415L345 425L355 425M185 375L195 385L205 385L215 385L225 385M35 345L45 355M295 405L305 405M5 345L15 335M315 415L325 425M145 385L155 375M115 375L125 375M175 385L185 385L195 395M-5 335L5 345L15 345L25 345L35 345L45 345L55 355L65 365L75 365L85 365L95 365L105 375L115 375L125 385L135 385L145 385L155 385L165 385L175 385L185 375L195 375L205 375L215 375L225 375L235 375L245 385L255 395L265 395L275 405L285 405L295 405L305 415L315 415L325 415L335 415L345 415L355 415L365 415L375 415L385 415L395 415L405 415L415 415L425 415" stroke="rgba(101, 184, 145, 1)" stroke-width="1.67"></path><path d="M422.5 415 a2.5 2.5 0 1 0 5 0 a2.5 2.5 0 1 0 -5 0zM232.5 385 a2.5 2.5 0 1 0 5 0 a2.5 2.5 0 1 0 -5 0zM352.5 425 a2.5 2.5 0 1 0 5 0 a2.5 2.5 0 1 0 -5 0zM222.5 385 a2.5 2.5 0 1 0 5 0 a2.5 2.5 0 1 0 -5 0zM42.5 355 a2.5 2.5 0 1 0 5 0 a2.5 2.5 0 1 0 -5 0zM302.5 405 a2.5 2.5 0 1 0 5 0 a2.5 2.5 0 1 0 -5 0zM12.5 335 a2.5 2.5 0 1 0 5 0 a2.5 2.5 0 1 0 -5 0zM322.5 425 a2.5 2.5 0 1 0 5 0 a2.5 2.5 0 1 0 -5 0zM152.5 375 a2.5 2.5 0 1 0 5 0 a2.5 2.5 0 1 0 -5 0zM122.5 375 a2.5 2.5 0 1 0 5 0 a2.5 2.5 0 1 0 -5 0zM192.5 395 a2.5 2.5 0 1 0 5 0 a2.5 2.5 0 1 0 -5 0z" fill="rgba(101, 184, 145, 1)"></path><path d="M465 145L475 155L485 155L495 155L505 155M195 165L205 155L215 145M765 165L775 155L785 155L795 155L805 155L815 155L825 155L835 155L845 155L855 155L865 155L875 155L885 155L895 155L905 145L915 145L925 145M505 145L515 145L525 145L535 145L545 145L555 145L565 145L575 145L585 145L595 145L605 145M495 145L505 135L515 135L525 135L535 135L545 135L555 135L565 135L575 125L585 125L595 125M705 165L715 155L725 155L735 155L745 155L755 155L765 155L775 145L785 135L795 125L805 125L815 125M55 225L65 215M485 145L495 135L505 125L515 125L525 125L535 125L545 125L555 125M625 165L635 155L645 155L655 155L665 155L675 145L685 145L695 145L705 145L715 145L725 145L735 145L745 145L755 145L765 145L775 135M685 165L695 155L705 155M435 145L445 155L455 155L465 155M605 165L615 155L625 155L635 145L645 145L655 145L665 145L675 135L685 135L695 135L705 135L715 135L725 135L735 135L745 135L755 135L765 135L775 125L785 125L795 115L805 115L815 115L825 115L835 115L845 115L855 115L865 115L875 115M375 145L385 135L395 135L405 135L415 135L425 135L435 135L445 135L455 135L465 135M425 145L435 155M475 145L485 135L495 125L505 115L515 115L525 115L535 115L545 115M675 165L685 155M595 155L605 155M135 175L145 175M-5 225L5 225L15 225L25 225L35 225L45 225L55 225L65 225L75 215L85 205L95 205L105 195L115 185L125 175L135 175L145 165L155 165L165 165L175 165L185 165L195 165L205 165L215 155L225 155L235 155L245 155L255 155L265 155L275 145L285 145L295 145L305 145L315 145L325 145L335 145L345 145L355 145L365 145L375 145L385 145L395 145L405 145L415 145L425 145L435 145L445 145L455 145L465 145L475 145L485 145L495 145L505 145L515 155L525 155L535 155L545 155L555 155L565 155L575 155L585 155L595 155L605 165L615 165L625 165L635 165L645 165L655 165L665 165L675 165L685 165L695 165L705 165L715 165L725 165L735 165L745 165L755 165L765 165L775 165" stroke="rgba(101, 184, 145, 1)" stroke-width="1.67"></path><path d="M772.5 165 a2.5 2.5 0 1 0 5 0 a2.5 2.5 0 1 0 -5 0zM502.5 155 a2.5 2.5 0 1 0 5 0 a2.5 2.5 0 1 0 -5 0zM212.5 145 a2.5 2.5 0 1 0 5 0 a2.5 2.5 0 1 0 -5 0zM922.5 145 a2.5 2.5 0 1 0 5 0 a2.5 2.5 0 1 0 -5 0zM602.5 145 a2.5 2.5 0 1 0 5 0 a2.5 2.5 0 1 0 -5 0zM592.5 125 a2.5 2.5 0 1 0 5 0 a2.5 2.5 0 1 0 -5 0zM812.5 125 a2.5 2.5 0 1 0 5 0 a2.5 2.5 0 1 0 -5 0zM62.5 215 a2.5 2.5 0 1 0 5 0 a2.5 2.5 0 1 0 -5 0zM552.5 125 a2.5 2.5 0 1 0 5 0 a2.5 2.5 0 1 0 -5 0zM772.5 135 a2.5 2.5 0 1 0 5 0 a2.5 2.5 0 1 0 -5 0zM702.5 155 a2.5 2.5 0 1 0 5 0 a2.5 2.5 0 1 0 -5 0zM462.5 155 a2.5 2.5 0 1 0 5 0 a2.5 2.5 0 1 0 -5 0zM872.5 115 a2.5 2.5 0 1 0 5 0 a2.5 2.5 0 1 0 -5 0zM462.5 135 a2.5 2.5 0 1 0 5 0 a2.5 2.5 0 1 0 -5 0zM432.5 155 a2.5 2.5 0 1 0 5 0 a2.5 2.5 0 1 0 -5 0zM542.5 115 a2.5 2.5 0 1 0 5 0 a2.5 2.5 0 1 0 -5 0zM682.5 155 a2.5 2.5 0 1 0 5 0 a2.5 2.5 0 1 0 -5 0zM602.5 155 a2.5 2.5 0 1 0 5 0 a2.5 2.5 0 1 0 -5 0zM142.5 175 a2.5 2.5 0 1 0 5 0 a2.5 2.5 0 1 0 -5 0z" fill="rgba(101, 184, 145, 1)"></path><path d="M555 415L565 405L575 405M425 425L435 435L445 435L455 435L465 435L475 435L485 435L495 435L505 435L515 435M515 415L525 405L535 405L545 405L555 405M415 425L425 435M365 435L375 435L385 435L395 435L405 435L415 435M565 415L575 425L585 425L595 425L605 425L615 425M305 425L315 425M495 415L505 425M85 375L95 375M285 415L295 425L305 435M605 415L615 405L625 405L635 405L645 405L655 405L665 405L675 405L685 405M595 415L605 405L615 395L625 395L635 395L645 395L655 395L665 395M275 415L285 425L295 435M455 415L465 425L475 425L485 425L495 425M445 425L455 425M-5 345L5 355L15 355L25 355L35 365L45 365L55 375L65 375L75 375L85 375L95 385L105 385L115 385L125 395L135 395L145 395L155 395L165 395L175 395L185 405L195 405L205 395L215 395L225 395L235 395L245 395L255 405L265 405L275 415L285 415L295 415L305 425L315 435L325 435L335 435L345 435L355 435L365 435L375 425L385 425L395 425L405 425L415 425L425 425L435 425L445 425L455 415L465 415L475 415L485 415L495 415L505 415L515 415L525 415L535 415L545 415L555 415L565 415L575 415L585 415L595 415L605 415L615 415" stroke="rgba(181, 255, 225, 1)" stroke-width="1.67"></path><path d="M612.5 415 a2.5 2.5 0 1 0 5 0 a2.5 2.5 0 1 0 -5 0zM572.5 405 a2.5 2.5 0 1 0 5 0 a2.5 2.5 0 1 0 -5 0zM512.5 435 a2.5 2.5 0 1 0 5 0 a2.5 2.5 0 1 0 -5 0zM552.5 405 a2.5 2.5 0 1 0 5 0 a2.5 2.5 0 1 0 -5 0zM422.5 435 a2.5 2.5 0 1 0 5 0 a2.5 2.5 0 1 0 -5 0zM412.5 435 a2.5 2.5 0 1 0 5 0 a2.5 2.5 0 1 0 -5 0zM612.5 425 a2.5 2.5 0 1 0 5 0 a2.5 2.5 0 1 0 -5 0zM312.5 425 a2.5 2.5 0 1 0 5 0 a2.5 2.5 0 1 0 -5 0zM502.5 425 a2.5 2.5 0 1 0 5 0 a2.5 2.5 0 1 0 -5 0zM92.5 375 a2.5 2.5 0 1 0 5 0 a2.5 2.5 0 1 0 -5 0zM302.5 435 a2.5 2.5 0 1 0 5 0 a2.5 2.5 0 1 0 -5 0zM682.5 405 a2.5 2.5 0 1 0 5 0 a2.5 2.5 0 1 0 -5 0zM662.5 395 a2.5 2.5 0 1 0 5 0 a2.5 2.5 0 1 0 -5 0zM292.5 435 a2.5 2.5 0 1 0 5 0 a2.5 2.5 0 1 0 -5 0zM492.5 425 a2.5 2.5 0 1 0 5 0 a2.5 2.5 0 1 0 -5 0zM452.5 425 a2.5 2.5 0 1 0 5 0 a2.5 2.5 0 1 0 -5 0z" fill="rgba(181, 255, 225, 1)"></path><path d="M175 155L185 145L195 145L205 145M45 215L55 215M-5 215L5 215L15 215L25 215L35 215L45 215L55 205L65 205L75 205L85 195L95 195L105 185L115 175L125 165L135 165L145 155L155 155L165 155L175 155L185 155" stroke="rgba(181, 255, 225, 1)" stroke-width="1.67"></path><path d="M182.5 155 a2.5 2.5 0 1 0 5 0 a2.5 2.5 0 1 0 -5 0zM202.5 145 a2.5 2.5 0 1 0 5 0 a2.5 2.5 0 1 0 -5 0zM52.5 215 a2.5 2.5 0 1 0 5 0 a2.5 2.5 0 1 0 -5 0z" fill="rgba(181, 255, 225, 1)"></path><path d="M675 455L685 445L695 445L705 445L715 445L725 445L735 445L745 435L755 425L765 425L775 425L785 425L795 425L805 425L815 425L825 425L835 435L845 435L855 425L865 425L875 425L885 425L895 425L905 425M925 455L935 445L945 445L955 445L965 445L975 445L985 435L995 435L1005 435L1015 435M895 455L905 445L915 445L925 445L935 435L945 435L955 425L965 425L975 425L985 425L995 425L1005 425L1015 425M915 455L925 465L935 465L945 465L955 465L965 465L975 465L985 465L995 465M565 455L575 445L585 435L595 435L605 445L615 445L625 445L635 445L645 445L655 445L665 445L675 445L685 435L695 435M715 455L725 465M755 455L765 445L775 445L785 445L795 445L805 445L815 445L825 445L835 445L845 445L855 445L865 445L875 445L885 445L895 445L905 435L915 425M985 445L995 455L1005 465M775 455L785 465M235 405L245 415L255 425L265 435M535 455L545 445L555 445L565 445L575 435M615 455L625 465L635 465L645 465L655 465L665 465L675 465L685 465M865 465L875 465L885 465L895 465L905 465L915 465M595 455L605 465L615 465M705 455L715 465M975 455L985 455M495 445L505 445L515 445L525 445L535 435L545 435L555 435L565 435M265 425L275 425M225 405L235 415L245 425L255 435M465 445L475 455L485 455L495 455M255 415L265 415M795 455L805 465M1005 445L1015 455M275 435L285 435M835 465L845 475L855 475L865 475L875 475L885 475L895 475M-5 355L5 365L15 365L25 365L35 375L45 375L55 385L65 385L75 385L85 385L95 395L105 395L115 395L125 405L135 405L145 405L155 405L165 405L175 405L185 415L195 415L205 415L215 415L225 405L235 405L245 405L255 415L265 425L275 435L285 445L295 445L305 445L315 445L325 445L335 445L345 445L355 445L365 445L375 445L385 445L395 445L405 445L415 445L425 445L435 445L445 445L455 445L465 445L475 445L485 445L495 445L505 455L515 455L525 455L535 455L545 455L555 455L565 455L575 455L585 455L595 455L605 455L615 455L625 455L635 455L645 455L655 455L665 455L675 455L685 455L695 455L705 455L715 455L725 455L735 455L745 455L755 455L765 455L775 455L785 455L795 455L805 455L815 455L825 455L835 465L845 465L855 465L865 465L875 455L885 455L895 455L905 455L915 455L925 455L935 455L945 455L955 455L965 455L975 455L985 445L995 445L1005 445L1015 445" stroke="rgba(101, 184, 145, 1)" stroke-width="1.67"></path><path d="M1012.5 445 a2.5 2.5 0 1 0 5 0 a2.5 2.5 0 1 0 -5 0zM902.5 425 a2.5 2.5 0 1 0 5 0 a2.5 2.5 0 1 0 -5 0zM1012.5 435 a2.5 2.5 0 1 0 5 0 a2.5 2.5 0 1 0 -5 0zM1012.5 425 a2.5 2.5 0 1 0 5 0 a2.5 2.5 0 1 0 -5 0zM992.5 465 a2.5 2.5 0 1 0 5 0 a2.5 2.5 0 1 0 -5 0zM692.5 435 a2.5 2.5 0 1 0 5 0 a2.5 2.5 0 1 0 -5 0zM722.5 465 a2.5 2.5 0 1 0 5 0 a2.5 2.5 0 1 0 -5 0zM912.5 425 a2.5 2.5 0 1 0 5 0 a2.5 2.5 0 1 0 -5 0zM1002.5 465 a2.5 2.5 0 1 0 5 0 a2.5 2.5 0 1 0 -5 0zM782.5 465 a2.5 2.5 0 1 0 5 0 a2.5 2.5 0 1 0 -5 0zM262.5 435 a2.5 2.5 0 1 0 5 0 a2.5 2.5 0 1 0 -5 0zM572.5 435 a2.5 2.5 0 1 0 5 0 a2.5 2.5 0 1 0 -5 0zM682.5 465 a2.5 2.5 0 1 0 5 0 a2.5 2.5 0 1 0 -5 0zM912.5 465 a2.5 2.5 0 1 0 5 0 a2.5 2.5 0 1 0 -5 0zM612.5 465 a2.5 2.5 0 1 0 5 0 a2.5 2.5 0 1 0 -5 0zM712.5 465 a2.5 2.5 0 1 0 5 0 a2.5 2.5 0 1 0 -5 0zM982.5 455 a2.5 2.5 0 1 0 5 0 a2.5 2.5 0 1 0 -5 0zM562.5 435 a2.5 2.5 0 1 0 5 0 a2.5 2.5 0 1 0 -5 0zM272.5 425 a2.5 2.5 0 1 0 5 0 a2.5 2.5 0 1 0 -5 0zM252.5 435 a2.5 2.5 0 1 0 5 0 a2.5 2.5 0 1 0 -5 0zM492.5 455 a2.5 2.5 0 1 0 5 0 a2.5 2.5 0 1 0 -5 0zM262.5 415 a2.5 2.5 0 1 0 5 0 a2.5 2.5 0 1 0 -5 0zM802.5 465 a2.5 2.5 0 1 0 5 0 a2.5 2.5 0 1 0 -5 0zM1012.5 455 a2.5 2.5 0 1 0 5 0 a2.5 2.5 0 1 0 -5 0zM282.5 435 a2.5 2.5 0 1 0 5 0 a2.5 2.5 0 1 0 -5 0zM892.5 475 a2.5 2.5 0 1 0 5 0 a2.5 2.5 0 1 0 -5 0z" fill="rgba(101, 184, 145, 1)"></path><path d="M345 135L355 125M515 95L525 105L535 105L545 105M685 105L695 115L705 115L715 115L725 115L735 115L745 115L755 115L765 125M725 95L735 95M695 105L705 95L715 85L725 85L735 75L745 75L755 75L765 75L775 65L785 55L795 55L805 55L815 55L825 55L835 55L845 65L855 65L865 65L875 65L885 65L895 65L905 65L915 65L925 65L935 65L945 65L955 65L965 65M375 125L385 125L395 125L405 125L415 125L425 125L435 125L445 125L455 115L465 115L475 115L485 115L495 115M655 105L665 95M405 105L415 95L425 95L435 95L445 95M435 105L445 115M485 105L495 95L505 95M535 95L545 85L555 85L565 85L575 85L585 85L595 85L605 85L615 85L625 85L635 85L645 95L655 95L665 85L675 85L685 85L695 85L705 85L715 75L725 75L735 65M295 135L305 125M125 155L135 155M605 95L615 105L625 105L635 105L645 115L655 115L665 115L675 115L685 115L695 125L705 125L715 125L725 125L735 125L745 125M575 95L585 105L595 105L605 105L615 115L625 115L635 115L645 125L655 125M475 105L485 95L495 85L505 85L515 85L525 85L535 85L545 75L555 75L565 75L575 75L585 75L595 75M675 105L685 95L695 95M745 85L755 95L765 95L775 95L785 95L795 95L805 95L815 95L825 95L835 95L845 95L855 95L865 95L875 95L885 95L895 95L905 95L915 95L925 95L935 95L945 85L955 85L965 85L975 85L985 85L995 85L1005 85L1015 85M775 75L785 75L795 75L805 75L815 75L825 75L835 85L845 85L855 85L865 85L875 85L885 85L895 85L905 85L915 85L925 85L935 85L945 75L955 75L965 75L975 75L985 75L995 75L1005 75L1015 75M315 135L325 125L335 125L345 125M-5 205L5 205L15 205L25 205L35 205L45 205L55 195L65 195L75 195L85 185L95 185L105 175L115 165L125 155L135 145L145 145L155 145L165 145L175 135L185 135L195 135L205 135L215 135L225 145L235 145L245 145L255 145L265 145L275 135L285 135L295 135L305 135L315 135L325 135L335 135L345 135L355 135L365 135L375 125L385 115L395 115L405 105L415 105L425 105L435 105L445 105L455 105L465 105L475 105L485 105L495 105L505 105L515 95L525 95L535 95L545 95L555 105L565 105L575 95L585 95L595 95L605 95L615 95L625 95L635 95L645 105L655 105L665 105L675 105L685 105L695 105L705 105L715 105L725 95L735 85L745 85L755 85L765 85L775 75L785 65" stroke="rgba(101, 184, 145, 1)" stroke-width="1.67"></path><path d="M782.5 65 a2.5 2.5 0 1 0 5 0 a2.5 2.5 0 1 0 -5 0zM352.5 125 a2.5 2.5 0 1 0 5 0 a2.5 2.5 0 1 0 -5 0zM542.5 105 a2.5 2.5 0 1 0 5 0 a2.5 2.5 0 1 0 -5 0zM762.5 125 a2.5 2.5 0 1 0 5 0 a2.5 2.5 0 1 0 -5 0zM732.5 95 a2.5 2.5 0 1 0 5 0 a2.5 2.5 0 1 0 -5 0zM962.5 65 a2.5 2.5 0 1 0 5 0 a2.5 2.5 0 1 0 -5 0zM492.5 115 a2.5 2.5 0 1 0 5 0 a2.5 2.5 0 1 0 -5 0zM662.5 95 a2.5 2.5 0 1 0 5 0 a2.5 2.5 0 1 0 -5 0zM442.5 95 a2.5 2.5 0 1 0 5 0 a2.5 2.5 0 1 0 -5 0zM442.5 115 a2.5 2.5 0 1 0 5 0 a2.5 2.5 0 1 0 -5 0zM502.5 95 a2.5 2.5 0 1 0 5 0 a2.5 2.5 0 1 0 -5 0zM732.5 65 a2.5 2.5 0 1 0 5 0 a2.5 2.5 0 1 0 -5 0zM302.5 125 a2.5 2.5 0 1 0 5 0 a2.5 2.5 0 1 0 -5 0zM132.5 155 a2.5 2.5 0 1 0 5 0 a2.5 2.5 0 1 0 -5 0zM742.5 125 a2.5 2.5 0 1 0 5 0 a2.5 2.5 0 1 0 -5 0zM652.5 125 a2.5 2.5 0 1 0 5 0 a2.5 2.5 0 1 0 -5 0zM592.5 75 a2.5 2.5 0 1 0 5 0 a2.5 2.5 0 1 0 -5 0zM692.5 95 a2.5 2.5 0 1 0 5 0 a2.5 2.5 0 1 0 -5 0zM1012.5 85 a2.5 2.5 0 1 0 5 0 a2.5 2.5 0 1 0 -5 0zM1012.5 75 a2.5 2.5 0 1 0 5 0 a2.5 2.5 0 1 0 -5 0zM342.5 125 a2.5 2.5 0 1 0 5 0 a2.5 2.5 0 1 0 -5 0z" fill="rgba(101, 184, 145, 1)"></path><path d="M225 425L235 425M-5 365L5 375L15 375L25 375L35 385L45 385L55 395L65 395L75 395L85 395L95 405L105 405L115 405L125 415L135 415L145 415L155 415L165 415L175 415L185 425L195 425L205 425L215 425L225 425L235 435" stroke="rgba(101, 184, 145, 1)" stroke-width="1.67"></path><path d="M232.5 435 a2.5 2.5 0 1 0 5 0 a2.5 2.5 0 1 0 -5 0zM232.5 425 a2.5 2.5 0 1 0 5 0 a2.5 2.5 0 1 0 -5 0z" fill="rgba(101, 184, 145, 1)"></path><path d="M-5 195L5 195L15 195L25 195L35 195L45 195L55 185L65 185L75 185L85 175L95 175" stroke="rgba(101, 184, 145, 1)" stroke-width="1.67"></path><path d="M92.5 175 a2.5 2.5 0 1 0 5 0 a2.5 2.5 0 1 0 -5 0z" fill="rgba(101, 184, 145, 1)"></path><path d="M485 465L495 475L505 475L515 475L525 475M415 455L425 465M395 455L405 465L415 465L425 475L435 475L445 475L455 475L465 475L475 475M105 415L115 415M565 465L575 475L585 475L595 475L605 475M555 465L565 475M385 455L395 465M455 455L465 455M445 455L455 465M435 455L445 465M535 465L545 475L555 475M-5 375L5 385L15 385L25 385L35 395L45 395L55 405L65 405L75 405L85 405L95 415L105 415L115 425L125 425L135 425L145 425L155 425L165 425L175 425L185 435L195 435L205 435L215 435L225 435L235 445L245 445L255 445L265 445L275 445L285 455L295 455L305 455L315 455L325 455L335 455L345 455L355 455L365 455L375 455L385 455L395 455L405 455L415 455L425 455L435 455L445 455L455 455L465 465L475 465L485 465L495 465L505 465L515 465L525 465L535 465L545 465L555 465L565 465L575 465" stroke="rgba(78, 135, 140, 1)" stroke-width="1.67"></path><path d="M572.5 465 a2.5 2.5 0 1 0 5 0 a2.5 2.5 0 1 0 -5 0zM522.5 475 a2.5 2.5 0 1 0 5 0 a2.5 2.5 0 1 0 -5 0zM422.5 465 a2.5 2.5 0 1 0 5 0 a2.5 2.5 0 1 0 -5 0zM472.5 475 a2.5 2.5 0 1 0 5 0 a2.5 2.5 0 1 0 -5 0zM112.5 415 a2.5 2.5 0 1 0 5 0 a2.5 2.5 0 1 0 -5 0zM602.5 475 a2.5 2.5 0 1 0 5 0 a2.5 2.5 0 1 0 -5 0zM562.5 475 a2.5 2.5 0 1 0 5 0 a2.5 2.5 0 1 0 -5 0zM392.5 465 a2.5 2.5 0 1 0 5 0 a2.5 2.5 0 1 0 -5 0zM462.5 455 a2.5 2.5 0 1 0 5 0 a2.5 2.5 0 1 0 -5 0zM452.5 465 a2.5 2.5 0 1 0 5 0 a2.5 2.5 0 1 0 -5 0zM442.5 465 a2.5 2.5 0 1 0 5 0 a2.5 2.5 0 1 0 -5 0zM552.5 475 a2.5 2.5 0 1 0 5 0 a2.5 2.5 0 1 0 -5 0z" fill="rgba(78, 135, 140, 1)"></path><path d="M235 125L245 135L255 135L265 135M225 125L235 135M55 175L65 165L75 165M-5 185L5 185L15 185L25 185L35 185L45 185L55 175L65 175L75 175L85 165L95 165L105 165L115 155L125 145L135 135L145 135L155 135L165 135L175 125L185 125L195 125L205 125L215 125L225 125L235 125L245 125L255 125L265 125L275 125L285 125" stroke="rgba(101, 184, 145, 1)" stroke-width="1.67"></path><path d="M282.5 125 a2.5 2.5 0 1 0 5 0 a2.5 2.5 0 1 0 -5 0zM262.5 135 a2.5 2.5 0 1 0 5 0 a2.5 2.5 0 1 0 -5 0zM232.5 135 a2.5 2.5 0 1 0 5 0 a2.5 2.5 0 1 0 -5 0zM72.5 165 a2.5 2.5 0 1 0 5 0 a2.5 2.5 0 1 0 -5 0z" fill="rgba(101, 184, 145, 1)"></path><path d="M925 475L935 485L945 485L955 485L965 485L975 495L985 495L995 495L1005 495L1015 485M895 485L905 485L915 485L925 485L935 495L945 495L955 495L965 495L975 505L985 505L995 505L1005 505M425 485L435 495L445 495L455 495L465 495M815 485L825 475L835 475M765 485L775 475L785 475L795 475L805 475L815 475L825 465M665 485L675 485L685 485M655 485L665 495M975 475L985 485L995 485L1005 485M745 485L755 475L765 475M415 485L425 495M645 495L655 495M635 495L645 485L655 475M625 495L635 485L645 475M715 475L725 475L735 475L745 475M695 475L705 465M615 495L625 485L635 475M405 485L415 475M375 465L385 465M575 485L585 485L595 485L605 485L615 485L625 475M-5 385L5 395L15 395L25 395L35 405L45 405L55 415L65 415L75 415L85 415L95 425L105 425L115 435L125 435L135 435L145 435L155 435L165 435L175 435L185 445L195 445L205 445L215 445L225 445L235 455L245 455L255 455L265 455L275 455L285 465L295 465L305 465L315 465L325 465L335 465L345 465L355 465L365 465L375 465L385 475L395 475L405 485L415 485L425 485L435 485L445 485L455 485L465 485L475 485L485 485L495 485L505 485L515 485L525 485L535 485L545 485L555 485L565 485L575 485L585 495L595 495L605 495L615 495L625 495L635 495L645 495L655 485L665 485L675 475L685 475L695 475L705 475L715 475L725 485L735 485L745 485L755 485L765 485L775 485L785 485L795 485L805 485L815 485L825 485L835 485L845 485L855 485L865 485L875 485L885 485L895 485L905 475L915 475L925 475L935 475L945 475L955 475L965 475L975 475L985 475L995 475L1005 475L1015 475" stroke="rgba(78, 135, 140, 1)" stroke-width="1.67"></path><path d="M1012.5 475 a2.5 2.5 0 1 0 5 0 a2.5 2.5 0 1 0 -5 0zM1012.5 485 a2.5 2.5 0 1 0 5 0 a2.5 2.5 0 1 0 -5 0zM1002.5 505 a2.5 2.5 0 1 0 5 0 a2.5 2.5 0 1 0 -5 0zM462.5 495 a2.5 2.5 0 1 0 5 0 a2.5 2.5 0 1 0 -5 0zM832.5 475 a2.5 2.5 0 1 0 5 0 a2.5 2.5 0 1 0 -5 0zM822.5 465 a2.5 2.5 0 1 0 5 0 a2.5 2.5 0 1 0 -5 0zM682.5 485 a2.5 2.5 0 1 0 5 0 a2.5 2.5 0 1 0 -5 0zM662.5 495 a2.5 2.5 0 1 0 5 0 a2.5 2.5 0 1 0 -5 0zM1002.5 485 a2.5 2.5 0 1 0 5 0 a2.5 2.5 0 1 0 -5 0zM762.5 475 a2.5 2.5 0 1 0 5 0 a2.5 2.5 0 1 0 -5 0zM422.5 495 a2.5 2.5 0 1 0 5 0 a2.5 2.5 0 1 0 -5 0zM652.5 495 a2.5 2.5 0 1 0 5 0 a2.5 2.5 0 1 0 -5 0zM652.5 475 a2.5 2.5 0 1 0 5 0 a2.5 2.5 0 1 0 -5 0zM642.5 475 a2.5 2.5 0 1 0 5 0 a2.5 2.5 0 1 0 -5 0zM742.5 475 a2.5 2.5 0 1 0 5 0 a2.5 2.5 0 1 0 -5 0zM702.5 465 a2.5 2.5 0 1 0 5 0 a2.5 2.5 0 1 0 -5 0zM632.5 475 a2.5 2.5 0 1 0 5 0 a2.5 2.5 0 1 0 -5 0zM412.5 475 a2.5 2.5 0 1 0 5 0 a2.5 2.5 0 1 0 -5 0zM382.5 465 a2.5 2.5 0 1 0 5 0 a2.5 2.5 0 1 0 -5 0zM622.5 475 a2.5 2.5 0 1 0 5 0 a2.5 2.5 0 1 0 -5 0z" fill="rgba(78, 135, 140, 1)"></path><path d="M265 115L275 105L285 105L295 105M325 115L335 115M305 115L315 105L325 105M355 115L365 115M345 105L355 105L365 105L375 105L385 105M45 165L55 165M335 105L345 95L355 95L365 95L375 95L385 95L395 95L405 95M245 115L255 105L265 105M35 175L45 175M-5 175L5 175L15 175L25 175L35 175L45 165L55 155L65 155L75 155L85 155L95 155L105 155L115 145L125 135L135 125L145 125L155 125L165 125L175 115L185 115L195 115L205 115L215 115L225 115L235 115L245 115L255 115L265 115L275 115L285 115L295 115L305 115L315 115L325 115L335 105L345 105L355 115L365 125" stroke="rgba(181, 255, 225, 1)" stroke-width="1.67"></path><path d="M362.5 125 a2.5 2.5 0 1 0 5 0 a2.5 2.5 0 1 0 -5 0zM292.5 105 a2.5 2.5 0 1 0 5 0 a2.5 2.5 0 1 0 -5 0zM332.5 115 a2.5 2.5 0 1 0 5 0 a2.5 2.5 0 1 0 -5 0zM322.5 105 a2.5 2.5 0 1 0 5 0 a2.5 2.5 0 1 0 -5 0zM362.5 115 a2.5 2.5 0 1 0 5 0 a2.5 2.5 0 1 0 -5 0zM382.5 105 a2.5 2.5 0 1 0 5 0 a2.5 2.5 0 1 0 -5 0zM52.5 165 a2.5 2.5 0 1 0 5 0 a2.5 2.5 0 1 0 -5 0zM402.5 95 a2.5 2.5 0 1 0 5 0 a2.5 2.5 0 1 0 -5 0zM262.5 105 a2.5 2.5 0 1 0 5 0 a2.5 2.5 0 1 0 -5 0zM42.5 175 a2.5 2.5 0 1 0 5 0 a2.5 2.5 0 1 0 -5 0z" fill="rgba(181, 255, 225, 1)"></path><path d="M365 475L375 485L385 495L395 495M295 475L305 485M145 445L155 455L165 455L175 455L185 465L195 465L205 465L215 465L225 465L235 475L245 485M265 465L275 475M255 465L265 475L275 485L285 485L295 485M35 415L45 415M345 475L355 485L365 485M245 465L255 475M335 475L345 485M315 475L325 485L335 485M-5 395L5 405L15 405L25 405L35 415L45 425L55 425L65 425L75 425L85 425L95 435L105 435L115 445L125 445L135 445L145 445L155 445L165 445L175 445L185 455L195 455L205 455L215 455L225 455L235 465L245 465L255 465L265 465L275 465L285 475L295 475L305 475L315 475L325 475L335 475L345 475L355 475L365 475L375 475L385 485L395 485L405 495" stroke="rgba(147, 229, 171, 1)" stroke-width="1.67"></path><path d="M402.5 495 a2.5 2.5 0 1 0 5 0 a2.5 2.5 0 1 0 -5 0zM392.5 495 a2.5 2.5 0 1 0 5 0 a2.5 2.5 0 1 0 -5 0zM302.5 485 a2.5 2.5 0 1 0 5 0 a2.5 2.5 0 1 0 -5 0zM242.5 485 a2.5 2.5 0 1 0 5 0 a2.5 2.5 0 1 0 -5 0zM272.5 475 a2.5 2.5 0 1 0 5 0 a2.5 2.5 0 1 0 -5 0zM292.5 485 a2.5 2.5 0 1 0 5 0 a2.5 2.5 0 1 0 -5 0zM42.5 415 a2.5 2.5 0 1 0 5 0 a2.5 2.5 0 1 0 -5 0zM362.5 485 a2.5 2.5 0 1 0 5 0 a2.5 2.5 0 1 0 -5 0zM252.5 475 a2.5 2.5 0 1 0 5 0 a2.5 2.5 0 1 0 -5 0zM342.5 485 a2.5 2.5 0 1 0 5 0 a2.5 2.5 0 1 0 -5 0zM332.5 485 a2.5 2.5 0 1 0 5 0 a2.5 2.5 0 1 0 -5 0z" fill="rgba(147, 229, 171, 1)"></path><path d="M285 95L295 85L305 85L315 85L325 85L335 85L345 85M145 115L155 105L165 105M95 145L105 135L115 125L125 115M235 105L245 105M135 115L145 105M275 95L285 85M-5 165L5 165L15 165L25 165L35 165L45 155L55 145L65 145L75 145L85 145L95 145L105 145L115 135L125 125L135 115L145 115L155 115L165 115L175 105L185 105L195 105L205 105L215 105L225 105L235 105L245 95L255 95L265 95L275 95L285 95L295 95L305 95L315 95L325 95" stroke="rgba(78, 135, 140, 1)" stroke-width="1.67"></path><path d="M322.5 95 a2.5 2.5 0 1 0 5 0 a2.5 2.5 0 1 0 -5 0zM342.5 85 a2.5 2.5 0 1 0 5 0 a2.5 2.5 0 1 0 -5 0zM162.5 105 a2.5 2.5 0 1 0 5 0 a2.5 2.5 0 1 0 -5 0zM122.5 115 a2.5 2.5 0 1 0 5 0 a2.5 2.5 0 1 0 -5 0zM242.5 105 a2.5 2.5 0 1 0 5 0 a2.5 2.5 0 1 0 -5 0zM142.5 105 a2.5 2.5 0 1 0 5 0 a2.5 2.5 0 1 0 -5 0zM282.5 85 a2.5 2.5 0 1 0 5 0 a2.5 2.5 0 1 0 -5 0z" fill="rgba(78, 135, 140, 1)"></path><path d="M925 505L935 515L945 525L955 525L965 525L975 525L985 525L995 515L1005 515L1015 515M165 475L175 465M575 505L585 515L595 515M755 495L765 505L775 505L785 505L795 505L805 505L815 505L825 505L835 505L845 505L855 505L865 505L875 505L885 515L895 515L905 515L915 515L925 515L935 525L945 535L955 535L965 535L975 535L985 535L995 525L1005 525L1015 525M555 495L565 505L575 515M685 495L695 495M135 465L145 465M605 505L615 515L625 515M255 495L265 485M525 495L535 505L545 505L555 505L565 515M205 485L215 475L225 475M185 475L195 475L205 475M435 505L445 515L455 515M465 505L475 505M675 495L685 505L695 505L705 505L715 505L725 505L735 505M705 485L715 495M505 495L515 505L525 505M915 495L925 495M885 495L895 505L905 505L915 505M745 495L755 505L765 515L775 515L785 515L795 515L805 515L815 515M565 495L575 495M15 415L25 415M365 495L375 495M125 455L135 455L145 455M-5 405L5 415L15 415L25 425L35 425L45 435L55 435L65 435L75 435L85 435L95 445L105 445L115 455L125 455L135 465L145 475L155 475L165 475L175 475L185 475L195 485L205 485L215 485L225 485L235 485L245 495L255 495L265 495L275 495L285 495L295 495L305 495L315 495L325 495L335 495L345 495L355 495L365 495L375 505L385 505L395 505L405 505L415 505L425 505L435 505L445 505L455 505L465 505L475 495L485 495L495 495L505 495L515 495L525 495L535 495L545 495L555 495L565 495L575 505L585 505L595 505L605 505L615 505L625 505L635 505L645 505L655 505L665 505L675 495L685 495L695 485L705 485L715 485L725 495L735 495L745 495L755 495L765 495L775 495L785 495L795 495L805 495L815 495L825 495L835 495L845 495L855 495L865 495L875 495L885 495L895 495L905 495L915 495L925 505L935 505L945 515" stroke="rgba(147, 229, 171, 1)" stroke-width="1.67"></path><path d="M942.5 515 a2.5 2.5 0 1 0 5 0 a2.5 2.5 0 1 0 -5 0zM1012.5 515 a2.5 2.5 0 1 0 5 0 a2.5 2.5 0 1 0 -5 0zM172.5 465 a2.5 2.5 0 1 0 5 0 a2.5 2.5 0 1 0 -5 0zM592.5 515 a2.5 2.5 0 1 0 5 0 a2.5 2.5 0 1 0 -5 0zM1012.5 525 a2.5 2.5 0 1 0 5 0 a2.5 2.5 0 1 0 -5 0zM572.5 515 a2.5 2.5 0 1 0 5 0 a2.5 2.5 0 1 0 -5 0zM692.5 495 a2.5 2.5 0 1 0 5 0 a2.5 2.5 0 1 0 -5 0zM142.5 465 a2.5 2.5 0 1 0 5 0 a2.5 2.5 0 1 0 -5 0zM622.5 515 a2.5 2.5 0 1 0 5 0 a2.5 2.5 0 1 0 -5 0zM262.5 485 a2.5 2.5 0 1 0 5 0 a2.5 2.5 0 1 0 -5 0zM562.5 515 a2.5 2.5 0 1 0 5 0 a2.5 2.5 0 1 0 -5 0zM222.5 475 a2.5 2.5 0 1 0 5 0 a2.5 2.5 0 1 0 -5 0zM202.5 475 a2.5 2.5 0 1 0 5 0 a2.5 2.5 0 1 0 -5 0zM452.5 515 a2.5 2.5 0 1 0 5 0 a2.5 2.5 0 1 0 -5 0zM472.5 505 a2.5 2.5 0 1 0 5 0 a2.5 2.5 0 1 0 -5 0zM732.5 505 a2.5 2.5 0 1 0 5 0 a2.5 2.5 0 1 0 -5 0zM712.5 495 a2.5 2.5 0 1 0 5 0 a2.5 2.5 0 1 0 -5 0zM522.5 505 a2.5 2.5 0 1 0 5 0 a2.5 2.5 0 1 0 -5 0zM922.5 495 a2.5 2.5 0 1 0 5 0 a2.5 2.5 0 1 0 -5 0zM912.5 505 a2.5 2.5 0 1 0 5 0 a2.5 2.5 0 1 0 -5 0zM812.5 515 a2.5 2.5 0 1 0 5 0 a2.5 2.5 0 1 0 -5 0zM572.5 495 a2.5 2.5 0 1 0 5 0 a2.5 2.5 0 1 0 -5 0zM22.5 415 a2.5 2.5 0 1 0 5 0 a2.5 2.5 0 1 0 -5 0zM372.5 495 a2.5 2.5 0 1 0 5 0 a2.5 2.5 0 1 0 -5 0zM142.5 455 a2.5 2.5 0 1 0 5 0 a2.5 2.5 0 1 0 -5 0z" fill="rgba(147, 229, 171, 1)"></path><path d="M185 95L195 85L205 85L215 85L225 85L235 85L245 75L255 75M95 125L105 125M175 95L185 85L195 75M125 105L135 105M165 95L175 85L185 75M105 115L115 115M85 135L95 135M355 75L365 65L375 65M345 75L355 65L365 55L375 55L385 55L395 45L405 45M-5 155L5 155L15 155L25 155L35 155L45 145L55 135L65 135L75 135L85 135L95 125L105 115L115 105L125 105L135 95L145 95L155 95L165 95L175 95L185 95L195 95L205 95L215 95L225 95L235 95L245 85L255 85L265 85L275 75L285 75L295 75L305 75L315 75L325 75L335 75L345 75L355 75L365 75" stroke="rgba(181, 255, 225, 1)" stroke-width="1.67"></path><path d="M362.5 75 a2.5 2.5 0 1 0 5 0 a2.5 2.5 0 1 0 -5 0zM252.5 75 a2.5 2.5 0 1 0 5 0 a2.5 2.5 0 1 0 -5 0zM102.5 125 a2.5 2.5 0 1 0 5 0 a2.5 2.5 0 1 0 -5 0zM192.5 75 a2.5 2.5 0 1 0 5 0 a2.5 2.5 0 1 0 -5 0zM132.5 105 a2.5 2.5 0 1 0 5 0 a2.5 2.5 0 1 0 -5 0zM182.5 75 a2.5 2.5 0 1 0 5 0 a2.5 2.5 0 1 0 -5 0zM112.5 115 a2.5 2.5 0 1 0 5 0 a2.5 2.5 0 1 0 -5 0zM92.5 135 a2.5 2.5 0 1 0 5 0 a2.5 2.5 0 1 0 -5 0zM372.5 65 a2.5 2.5 0 1 0 5 0 a2.5 2.5 0 1 0 -5 0zM402.5 45 a2.5 2.5 0 1 0 5 0 a2.5 2.5 0 1 0 -5 0z" fill="rgba(181, 255, 225, 1)"></path><path d="M645 515L655 515L665 515L675 515L685 515L695 515M505 515L515 525L525 525L535 535L545 535M395 515L405 525L415 525L425 535L435 535M5 425L15 435L25 445L35 445L45 455L55 455L65 455L75 455L85 455M605 525L615 535L625 535L635 535L645 535L655 535L665 535L675 535L685 535L695 535L705 535M245 505L255 515L265 515L275 515M485 515L495 525L505 525L515 535L525 535L535 545L545 545L555 545L565 545L575 545M585 525L595 535L605 535L615 545L625 545L635 545M345 505L355 515L365 525L375 525L385 525L395 525L405 535L415 535L425 545L435 545L445 545L455 545L465 545L475 545L485 545L495 545L505 545L515 545L525 545M445 525L455 535M565 525L575 535L585 535M285 505L295 515L305 515L315 515L325 515M215 495L225 505L235 505L245 515L255 525L265 525M145 485L155 495L165 495L175 505L185 505L195 505L205 505L215 505L225 515L235 515L245 525L255 535L265 535L275 535M455 525L465 525L475 525L485 525L495 535L505 535M635 515L645 525M95 455L105 465L115 475L125 485L135 485L145 495M-5 415L5 425L15 425L25 435L35 435L45 445L55 445L65 445L75 445L85 445L95 455L105 455L115 465L125 465L135 475L145 485L155 485L165 485L175 485L185 485L195 495L205 495L215 495L225 495L235 495L245 505L255 505L265 505L275 505L285 505L295 505L305 505L315 505L325 505L335 505L345 505L355 505L365 515L375 515L385 515L395 515L405 515L415 515L425 525L435 525L445 525L455 525L465 515L475 515L485 515L495 515L505 515L515 515L525 515L535 525L545 525L555 525L565 525L575 525L585 525L595 525L605 525L615 525L625 525L635 515L645 515L655 525L665 525L675 525L685 525" stroke="rgba(181, 255, 225, 1)" stroke-width="1.67"></path><path d="M682.5 525 a2.5 2.5 0 1 0 5 0 a2.5 2.5 0 1 0 -5 0zM692.5 515 a2.5 2.5 0 1 0 5 0 a2.5 2.5 0 1 0 -5 0zM542.5 535 a2.5 2.5 0 1 0 5 0 a2.5 2.5 0 1 0 -5 0zM432.5 535 a2.5 2.5 0 1 0 5 0 a2.5 2.5 0 1 0 -5 0zM82.5 455 a2.5 2.5 0 1 0 5 0 a2.5 2.5 0 1 0 -5 0zM702.5 535 a2.5 2.5 0 1 0 5 0 a2.5 2.5 0 1 0 -5 0zM272.5 515 a2.5 2.5 0 1 0 5 0 a2.5 2.5 0 1 0 -5 0zM572.5 545 a2.5 2.5 0 1 0 5 0 a2.5 2.5 0 1 0 -5 0zM632.5 545 a2.5 2.5 0 1 0 5 0 a2.5 2.5 0 1 0 -5 0zM522.5 545 a2.5 2.5 0 1 0 5 0 a2.5 2.5 0 1 0 -5 0zM452.5 535 a2.5 2.5 0 1 0 5 0 a2.5 2.5 0 1 0 -5 0zM582.5 535 a2.5 2.5 0 1 0 5 0 a2.5 2.5 0 1 0 -5 0zM322.5 515 a2.5 2.5 0 1 0 5 0 a2.5 2.5 0 1 0 -5 0zM262.5 525 a2.5 2.5 0 1 0 5 0 a2.5 2.5 0 1 0 -5 0zM272.5 535 a2.5 2.5 0 1 0 5 0 a2.5 2.5 0 1 0 -5 0zM502.5 535 a2.5 2.5 0 1 0 5 0 a2.5 2.5 0 1 0 -5 0zM642.5 525 a2.5 2.5 0 1 0 5 0 a2.5 2.5 0 1 0 -5 0zM142.5 495 a2.5 2.5 0 1 0 5 0 a2.5 2.5 0 1 0 -5 0z" fill="rgba(181, 255, 225, 1)"></path><path d="M265 65L275 55L285 55L295 55L305 55M165 75L175 75M315 65L325 55L335 55L345 55L355 55L365 45L375 35L385 35M75 125L85 115M195 65L205 55L215 55M255 65L265 55L275 45L285 45L295 45L305 45L315 45L325 45L335 35L345 35L355 35L365 35M155 85L165 85M15 145L25 135L35 125L45 125L55 115L65 115M-5 145L5 145L15 145L25 145L35 135L45 135L55 125L65 125L75 125L85 125L95 115L105 105L115 95L125 95L135 85L145 85L155 85L165 75L175 65L185 65L195 65L205 65L215 65L225 65L235 65L245 65L255 65L265 65L275 65L285 65L295 65L305 65L315 65L325 65" stroke="rgba(147, 229, 171, 1)" stroke-width="1.67"></path><path d="M322.5 65 a2.5 2.5 0 1 0 5 0 a2.5 2.5 0 1 0 -5 0zM302.5 55 a2.5 2.5 0 1 0 5 0 a2.5 2.5 0 1 0 -5 0zM172.5 75 a2.5 2.5 0 1 0 5 0 a2.5 2.5 0 1 0 -5 0zM382.5 35 a2.5 2.5 0 1 0 5 0 a2.5 2.5 0 1 0 -5 0zM82.5 115 a2.5 2.5 0 1 0 5 0 a2.5 2.5 0 1 0 -5 0zM212.5 55 a2.5 2.5 0 1 0 5 0 a2.5 2.5 0 1 0 -5 0zM362.5 35 a2.5 2.5 0 1 0 5 0 a2.5 2.5 0 1 0 -5 0zM162.5 85 a2.5 2.5 0 1 0 5 0 a2.5 2.5 0 1 0 -5 0zM62.5 115 a2.5 2.5 0 1 0 5 0 a2.5 2.5 0 1 0 -5 0z" fill="rgba(147, 229, 171, 1)"></path></g></g><defs><mask id="SvgjsMask1257"><rect width="1440" height="560" fill="#ffffff"></rect></mask><mask id="SvgjsMask1258"><rect width="1440" height="560" fill="white"></rect><path d="M883.75 265 a1.25 1.25 0 1 0 2.5 0 a1.25 1.25 0 1 0 -2.5 0zM793.75 295 a1.25 1.25 0 1 0 2.5 0 a1.25 1.25 0 1 0 -2.5 0zM793.75 305 a1.25 1.25 0 1 0 2.5 0 a1.25 1.25 0 1 0 -2.5 0zM153.75 275 a1.25 1.25 0 1 0 2.5 0 a1.25 1.25 0 1 0 -2.5 0zM703.75 265 a1.25 1.25 0 1 0 2.5 0 a1.25 1.25 0 1 0 -2.5 0zM753.75 285 a1.25 1.25 0 1 0 2.5 0 a1.25 1.25 0 1 0 -2.5 0zM393.75 255 a1.25 1.25 0 1 0 2.5 0 a1.25 1.25 0 1 0 -2.5 0zM213.75 265 a1.25 1.25 0 1 0 2.5 0 a1.25 1.25 0 1 0 -2.5 0zM743.75 265 a1.25 1.25 0 1 0 2.5 0 a1.25 1.25 0 1 0 -2.5 0zM53.75 295 a1.25 1.25 0 1 0 2.5 0 a1.25 1.25 0 1 0 -2.5 0zM493.75 275 a1.25 1.25 0 1 0 2.5 0 a1.25 1.25 0 1 0 -2.5 0zM763.75 315 a1.25 1.25 0 1 0 2.5 0 a1.25 1.25 0 1 0 -2.5 0zM943.75 275 a1.25 1.25 0 1 0 2.5 0 a1.25 1.25 0 1 0 -2.5 0zM543.75 255 a1.25 1.25 0 1 0 2.5 0 a1.25 1.25 0 1 0 -2.5 0zM653.75 265 a1.25 1.25 0 1 0 2.5 0 a1.25 1.25 0 1 0 -2.5 0zM353.75 275 a1.25 1.25 0 1 0 2.5 0 a1.25 1.25 0 1 0 -2.5 0zM473.75 245 a1.25 1.25 0 1 0 2.5 0 a1.25 1.25 0 1 0 -2.5 0zM803.75 265 a1.25 1.25 0 1 0 2.5 0 a1.25 1.25 0 1 0 -2.5 0zM443.75 255 a1.25 1.25 0 1 0 2.5 0 a1.25 1.25 0 1 0 -2.5 0zM263.75 275 a1.25 1.25 0 1 0 2.5 0 a1.25 1.25 0 1 0 -2.5 0zM733.75 285 a1.25 1.25 0 1 0 2.5 0 a1.25 1.25 0 1 0 -2.5 0zM383.75 245 a1.25 1.25 0 1 0 2.5 0 a1.25 1.25 0 1 0 -2.5 0zM623.75 305 a1.25 1.25 0 1 0 2.5 0 a1.25 1.25 0 1 0 -2.5 0z" fill="black"></path><path d="M253.75 235 a1.25 1.25 0 1 0 2.5 0 a1.25 1.25 0 1 0 -2.5 0zM133.75 245 a1.25 1.25 0 1 0 2.5 0 a1.25 1.25 0 1 0 -2.5 0zM123.75 245 a1.25 1.25 0 1 0 2.5 0 a1.25 1.25 0 1 0 -2.5 0zM303.75 245 a1.25 1.25 0 1 0 2.5 0 a1.25 1.25 0 1 0 -2.5 0zM243.75 245 a1.25 1.25 0 1 0 2.5 0 a1.25 1.25 0 1 0 -2.5 0z" fill="black"></path><path d="M1003.75 325 a1.25 1.25 0 1 0 2.5 0 a1.25 1.25 0 1 0 -2.5 0zM753.75 335 a1.25 1.25 0 1 0 2.5 0 a1.25 1.25 0 1 0 -2.5 0zM253.75 305 a1.25 1.25 0 1 0 2.5 0 a1.25 1.25 0 1 0 -2.5 0zM223.75 325 a1.25 1.25 0 1 0 2.5 0 a1.25 1.25 0 1 0 -2.5 0zM663.75 335 a1.25 1.25 0 1 0 2.5 0 a1.25 1.25 0 1 0 -2.5 0zM583.75 305 a1.25 1.25 0 1 0 2.5 0 a1.25 1.25 0 1 0 -2.5 0zM613.75 315 a1.25 1.25 0 1 0 2.5 0 a1.25 1.25 0 1 0 -2.5 0zM433.75 335 a1.25 1.25 0 1 0 2.5 0 a1.25 1.25 0 1 0 -2.5 0zM183.75 325 a1.25 1.25 0 1 0 2.5 0 a1.25 1.25 0 1 0 -2.5 0zM1013.75 315 a1.25 1.25 0 1 0 2.5 0 a1.25 1.25 0 1 0 -2.5 0zM703.75 315 a1.25 1.25 0 1 0 2.5 0 a1.25 1.25 0 1 0 -2.5 0zM163.75 325 a1.25 1.25 0 1 0 2.5 0 a1.25 1.25 0 1 0 -2.5 0zM433.75 315 a1.25 1.25 0 1 0 2.5 0 a1.25 1.25 0 1 0 -2.5 0zM993.75 305 a1.25 1.25 0 1 0 2.5 0 a1.25 1.25 0 1 0 -2.5 0zM343.75 315 a1.25 1.25 0 1 0 2.5 0 a1.25 1.25 0 1 0 -2.5 0zM313.75 315 a1.25 1.25 0 1 0 2.5 0 a1.25 1.25 0 1 0 -2.5 0zM893.75 345 a1.25 1.25 0 1 0 2.5 0 a1.25 1.25 0 1 0 -2.5 0zM923.75 315 a1.25 1.25 0 1 0 2.5 0 a1.25 1.25 0 1 0 -2.5 0zM153.75 325 a1.25 1.25 0 1 0 2.5 0 a1.25 1.25 0 1 0 -2.5 0zM1013.75 335 a1.25 1.25 0 1 0 2.5 0 a1.25 1.25 0 1 0 -2.5 0zM643.75 325 a1.25 1.25 0 1 0 2.5 0 a1.25 1.25 0 1 0 -2.5 0zM923.75 305 a1.25 1.25 0 1 0 2.5 0 a1.25 1.25 0 1 0 -2.5 0zM233.75 315 a1.25 1.25 0 1 0 2.5 0 a1.25 1.25 0 1 0 -2.5 0zM803.75 315 a1.25 1.25 0 1 0 2.5 0 a1.25 1.25 0 1 0 -2.5 0zM883.75 355 a1.25 1.25 0 1 0 2.5 0 a1.25 1.25 0 1 0 -2.5 0zM953.75 305 a1.25 1.25 0 1 0 2.5 0 a1.25 1.25 0 1 0 -2.5 0z" fill="black"></path><path d="M943.75 235 a1.25 1.25 0 1 0 2.5 0 a1.25 1.25 0 1 0 -2.5 0zM133.75 225 a1.25 1.25 0 1 0 2.5 0 a1.25 1.25 0 1 0 -2.5 0zM183.75 225 a1.25 1.25 0 1 0 2.5 0 a1.25 1.25 0 1 0 -2.5 0zM563.75 225 a1.25 1.25 0 1 0 2.5 0 a1.25 1.25 0 1 0 -2.5 0zM923.75 225 a1.25 1.25 0 1 0 2.5 0 a1.25 1.25 0 1 0 -2.5 0zM773.75 235 a1.25 1.25 0 1 0 2.5 0 a1.25 1.25 0 1 0 -2.5 0zM103.75 245 a1.25 1.25 0 1 0 2.5 0 a1.25 1.25 0 1 0 -2.5 0zM333.75 225 a1.25 1.25 0 1 0 2.5 0 a1.25 1.25 0 1 0 -2.5 0zM573.75 245 a1.25 1.25 0 1 0 2.5 0 a1.25 1.25 0 1 0 -2.5 0zM543.75 245 a1.25 1.25 0 1 0 2.5 0 a1.25 1.25 0 1 0 -2.5 0zM983.75 245 a1.25 1.25 0 1 0 2.5 0 a1.25 1.25 0 1 0 -2.5 0zM773.75 255 a1.25 1.25 0 1 0 2.5 0 a1.25 1.25 0 1 0 -2.5 0zM123.75 225 a1.25 1.25 0 1 0 2.5 0 a1.25 1.25 0 1 0 -2.5 0zM523.75 225 a1.25 1.25 0 1 0 2.5 0 a1.25 1.25 0 1 0 -2.5 0zM623.75 215 a1.25 1.25 0 1 0 2.5 0 a1.25 1.25 0 1 0 -2.5 0zM1013.75 225 a1.25 1.25 0 1 0 2.5 0 a1.25 1.25 0 1 0 -2.5 0zM893.75 225 a1.25 1.25 0 1 0 2.5 0 a1.25 1.25 0 1 0 -2.5 0zM153.75 225 a1.25 1.25 0 1 0 2.5 0 a1.25 1.25 0 1 0 -2.5 0zM573.75 235 a1.25 1.25 0 1 0 2.5 0 a1.25 1.25 0 1 0 -2.5 0zM653.75 245 a1.25 1.25 0 1 0 2.5 0 a1.25 1.25 0 1 0 -2.5 0zM603.75 235 a1.25 1.25 0 1 0 2.5 0 a1.25 1.25 0 1 0 -2.5 0zM783.75 245 a1.25 1.25 0 1 0 2.5 0 a1.25 1.25 0 1 0 -2.5 0zM273.75 235 a1.25 1.25 0 1 0 2.5 0 a1.25 1.25 0 1 0 -2.5 0zM173.75 225 a1.25 1.25 0 1 0 2.5 0 a1.25 1.25 0 1 0 -2.5 0zM883.75 225 a1.25 1.25 0 1 0 2.5 0 a1.25 1.25 0 1 0 -2.5 0z" fill="black"></path><path d="M863.75 365 a1.25 1.25 0 1 0 2.5 0 a1.25 1.25 0 1 0 -2.5 0zM413.75 335 a1.25 1.25 0 1 0 2.5 0 a1.25 1.25 0 1 0 -2.5 0zM633.75 365 a1.25 1.25 0 1 0 2.5 0 a1.25 1.25 0 1 0 -2.5 0zM363.75 355 a1.25 1.25 0 1 0 2.5 0 a1.25 1.25 0 1 0 -2.5 0zM613.75 365 a1.25 1.25 0 1 0 2.5 0 a1.25 1.25 0 1 0 -2.5 0zM473.75 345 a1.25 1.25 0 1 0 2.5 0 a1.25 1.25 0 1 0 -2.5 0zM103.75 325 a1.25 1.25 0 1 0 2.5 0 a1.25 1.25 0 1 0 -2.5 0zM973.75 395 a1.25 1.25 0 1 0 2.5 0 a1.25 1.25 0 1 0 -2.5 0zM663.75 345 a1.25 1.25 0 1 0 2.5 0 a1.25 1.25 0 1 0 -2.5 0zM73.75 325 a1.25 1.25 0 1 0 2.5 0 a1.25 1.25 0 1 0 -2.5 0zM863.75 355 a1.25 1.25 0 1 0 2.5 0 a1.25 1.25 0 1 0 -2.5 0zM373.75 335 a1.25 1.25 0 1 0 2.5 0 a1.25 1.25 0 1 0 -2.5 0zM353.75 335 a1.25 1.25 0 1 0 2.5 0 a1.25 1.25 0 1 0 -2.5 0zM723.75 365 a1.25 1.25 0 1 0 2.5 0 a1.25 1.25 0 1 0 -2.5 0zM753.75 355 a1.25 1.25 0 1 0 2.5 0 a1.25 1.25 0 1 0 -2.5 0zM783.75 375 a1.25 1.25 0 1 0 2.5 0 a1.25 1.25 0 1 0 -2.5 0zM343.75 335 a1.25 1.25 0 1 0 2.5 0 a1.25 1.25 0 1 0 -2.5 0zM813.75 355 a1.25 1.25 0 1 0 2.5 0 a1.25 1.25 0 1 0 -2.5 0zM1013.75 405 a1.25 1.25 0 1 0 2.5 0 a1.25 1.25 0 1 0 -2.5 0zM463.75 375 a1.25 1.25 0 1 0 2.5 0 a1.25 1.25 0 1 0 -2.5 0zM463.75 345 a1.25 1.25 0 1 0 2.5 0 a1.25 1.25 0 1 0 -2.5 0zM893.75 395 a1.25 1.25 0 1 0 2.5 0 a1.25 1.25 0 1 0 -2.5 0zM573.75 365 a1.25 1.25 0 1 0 2.5 0 a1.25 1.25 0 1 0 -2.5 0z" fill="black"></path><path d="M683.75 205 a1.25 1.25 0 1 0 2.5 0 a1.25 1.25 0 1 0 -2.5 0zM573.75 205 a1.25 1.25 0 1 0 2.5 0 a1.25 1.25 0 1 0 -2.5 0zM83.75 245 a1.25 1.25 0 1 0 2.5 0 a1.25 1.25 0 1 0 -2.5 0zM203.75 205 a1.25 1.25 0 1 0 2.5 0 a1.25 1.25 0 1 0 -2.5 0zM543.75 205 a1.25 1.25 0 1 0 2.5 0 a1.25 1.25 0 1 0 -2.5 0zM413.75 205 a1.25 1.25 0 1 0 2.5 0 a1.25 1.25 0 1 0 -2.5 0zM473.75 215 a1.25 1.25 0 1 0 2.5 0 a1.25 1.25 0 1 0 -2.5 0zM513.75 225 a1.25 1.25 0 1 0 2.5 0 a1.25 1.25 0 1 0 -2.5 0zM533.75 205 a1.25 1.25 0 1 0 2.5 0 a1.25 1.25 0 1 0 -2.5 0zM243.75 205 a1.25 1.25 0 1 0 2.5 0 a1.25 1.25 0 1 0 -2.5 0zM433.75 225 a1.25 1.25 0 1 0 2.5 0 a1.25 1.25 0 1 0 -2.5 0zM443.75 215 a1.25 1.25 0 1 0 2.5 0 a1.25 1.25 0 1 0 -2.5 0zM133.75 205 a1.25 1.25 0 1 0 2.5 0 a1.25 1.25 0 1 0 -2.5 0zM113.75 225 a1.25 1.25 0 1 0 2.5 0 a1.25 1.25 0 1 0 -2.5 0zM203.75 215 a1.25 1.25 0 1 0 2.5 0 a1.25 1.25 0 1 0 -2.5 0zM823.75 215 a1.25 1.25 0 1 0 2.5 0 a1.25 1.25 0 1 0 -2.5 0zM313.75 195 a1.25 1.25 0 1 0 2.5 0 a1.25 1.25 0 1 0 -2.5 0zM303.75 195 a1.25 1.25 0 1 0 2.5 0 a1.25 1.25 0 1 0 -2.5 0z" fill="black"></path><path d="M413.75 385 a1.25 1.25 0 1 0 2.5 0 a1.25 1.25 0 1 0 -2.5 0zM433.75 375 a1.25 1.25 0 1 0 2.5 0 a1.25 1.25 0 1 0 -2.5 0zM213.75 345 a1.25 1.25 0 1 0 2.5 0 a1.25 1.25 0 1 0 -2.5 0zM203.75 345 a1.25 1.25 0 1 0 2.5 0 a1.25 1.25 0 1 0 -2.5 0zM313.75 375 a1.25 1.25 0 1 0 2.5 0 a1.25 1.25 0 1 0 -2.5 0zM323.75 365 a1.25 1.25 0 1 0 2.5 0 a1.25 1.25 0 1 0 -2.5 0zM483.75 385 a1.25 1.25 0 1 0 2.5 0 a1.25 1.25 0 1 0 -2.5 0zM133.75 355 a1.25 1.25 0 1 0 2.5 0 a1.25 1.25 0 1 0 -2.5 0zM193.75 345 a1.25 1.25 0 1 0 2.5 0 a1.25 1.25 0 1 0 -2.5 0zM363.75 375 a1.25 1.25 0 1 0 2.5 0 a1.25 1.25 0 1 0 -2.5 0zM283.75 375 a1.25 1.25 0 1 0 2.5 0 a1.25 1.25 0 1 0 -2.5 0z" fill="black"></path><path d="M823.75 205 a1.25 1.25 0 1 0 2.5 0 a1.25 1.25 0 1 0 -2.5 0zM483.75 185 a1.25 1.25 0 1 0 2.5 0 a1.25 1.25 0 1 0 -2.5 0zM563.75 185 a1.25 1.25 0 1 0 2.5 0 a1.25 1.25 0 1 0 -2.5 0zM503.75 195 a1.25 1.25 0 1 0 2.5 0 a1.25 1.25 0 1 0 -2.5 0zM413.75 185 a1.25 1.25 0 1 0 2.5 0 a1.25 1.25 0 1 0 -2.5 0zM553.75 185 a1.25 1.25 0 1 0 2.5 0 a1.25 1.25 0 1 0 -2.5 0zM303.75 185 a1.25 1.25 0 1 0 2.5 0 a1.25 1.25 0 1 0 -2.5 0zM793.75 205 a1.25 1.25 0 1 0 2.5 0 a1.25 1.25 0 1 0 -2.5 0zM293.75 185 a1.25 1.25 0 1 0 2.5 0 a1.25 1.25 0 1 0 -2.5 0zM123.75 205 a1.25 1.25 0 1 0 2.5 0 a1.25 1.25 0 1 0 -2.5 0zM723.75 205 a1.25 1.25 0 1 0 2.5 0 a1.25 1.25 0 1 0 -2.5 0zM463.75 195 a1.25 1.25 0 1 0 2.5 0 a1.25 1.25 0 1 0 -2.5 0zM603.75 185 a1.25 1.25 0 1 0 2.5 0 a1.25 1.25 0 1 0 -2.5 0zM493.75 205 a1.25 1.25 0 1 0 2.5 0 a1.25 1.25 0 1 0 -2.5 0zM383.75 175 a1.25 1.25 0 1 0 2.5 0 a1.25 1.25 0 1 0 -2.5 0zM323.75 165 a1.25 1.25 0 1 0 2.5 0 a1.25 1.25 0 1 0 -2.5 0zM543.75 185 a1.25 1.25 0 1 0 2.5 0 a1.25 1.25 0 1 0 -2.5 0zM243.75 185 a1.25 1.25 0 1 0 2.5 0 a1.25 1.25 0 1 0 -2.5 0zM233.75 185 a1.25 1.25 0 1 0 2.5 0 a1.25 1.25 0 1 0 -2.5 0zM713.75 205 a1.25 1.25 0 1 0 2.5 0 a1.25 1.25 0 1 0 -2.5 0zM223.75 185 a1.25 1.25 0 1 0 2.5 0 a1.25 1.25 0 1 0 -2.5 0zM863.75 215 a1.25 1.25 0 1 0 2.5 0 a1.25 1.25 0 1 0 -2.5 0z" fill="black"></path><path d="M463.75 395 a1.25 1.25 0 1 0 2.5 0 a1.25 1.25 0 1 0 -2.5 0zM313.75 405 a1.25 1.25 0 1 0 2.5 0 a1.25 1.25 0 1 0 -2.5 0zM573.75 395 a1.25 1.25 0 1 0 2.5 0 a1.25 1.25 0 1 0 -2.5 0zM443.75 415 a1.25 1.25 0 1 0 2.5 0 a1.25 1.25 0 1 0 -2.5 0zM453.75 405 a1.25 1.25 0 1 0 2.5 0 a1.25 1.25 0 1 0 -2.5 0zM373.75 395 a1.25 1.25 0 1 0 2.5 0 a1.25 1.25 0 1 0 -2.5 0zM353.75 405 a1.25 1.25 0 1 0 2.5 0 a1.25 1.25 0 1 0 -2.5 0zM363.75 395 a1.25 1.25 0 1 0 2.5 0 a1.25 1.25 0 1 0 -2.5 0zM113.75 355 a1.25 1.25 0 1 0 2.5 0 a1.25 1.25 0 1 0 -2.5 0zM333.75 405 a1.25 1.25 0 1 0 2.5 0 a1.25 1.25 0 1 0 -2.5 0zM173.75 365 a1.25 1.25 0 1 0 2.5 0 a1.25 1.25 0 1 0 -2.5 0zM133.75 375 a1.25 1.25 0 1 0 2.5 0 a1.25 1.25 0 1 0 -2.5 0zM173.75 375 a1.25 1.25 0 1 0 2.5 0 a1.25 1.25 0 1 0 -2.5 0z" fill="black"></path><path d="M773.75 185 a1.25 1.25 0 1 0 2.5 0 a1.25 1.25 0 1 0 -2.5 0zM413.75 155 a1.25 1.25 0 1 0 2.5 0 a1.25 1.25 0 1 0 -2.5 0zM823.75 175 a1.25 1.25 0 1 0 2.5 0 a1.25 1.25 0 1 0 -2.5 0zM533.75 165 a1.25 1.25 0 1 0 2.5 0 a1.25 1.25 0 1 0 -2.5 0zM283.75 165 a1.25 1.25 0 1 0 2.5 0 a1.25 1.25 0 1 0 -2.5 0zM343.75 155 a1.25 1.25 0 1 0 2.5 0 a1.25 1.25 0 1 0 -2.5 0zM703.75 175 a1.25 1.25 0 1 0 2.5 0 a1.25 1.25 0 1 0 -2.5 0zM513.75 185 a1.25 1.25 0 1 0 2.5 0 a1.25 1.25 0 1 0 -2.5 0zM593.75 185 a1.25 1.25 0 1 0 2.5 0 a1.25 1.25 0 1 0 -2.5 0zM663.75 175 a1.25 1.25 0 1 0 2.5 0 a1.25 1.25 0 1 0 -2.5 0zM273.75 165 a1.25 1.25 0 1 0 2.5 0 a1.25 1.25 0 1 0 -2.5 0zM593.75 165 a1.25 1.25 0 1 0 2.5 0 a1.25 1.25 0 1 0 -2.5 0zM653.75 175 a1.25 1.25 0 1 0 2.5 0 a1.25 1.25 0 1 0 -2.5 0zM583.75 175 a1.25 1.25 0 1 0 2.5 0 a1.25 1.25 0 1 0 -2.5 0zM503.75 185 a1.25 1.25 0 1 0 2.5 0 a1.25 1.25 0 1 0 -2.5 0z" fill="black"></path><path d="M423.75 415 a1.25 1.25 0 1 0 2.5 0 a1.25 1.25 0 1 0 -2.5 0zM233.75 385 a1.25 1.25 0 1 0 2.5 0 a1.25 1.25 0 1 0 -2.5 0zM353.75 425 a1.25 1.25 0 1 0 2.5 0 a1.25 1.25 0 1 0 -2.5 0zM223.75 385 a1.25 1.25 0 1 0 2.5 0 a1.25 1.25 0 1 0 -2.5 0zM43.75 355 a1.25 1.25 0 1 0 2.5 0 a1.25 1.25 0 1 0 -2.5 0zM303.75 405 a1.25 1.25 0 1 0 2.5 0 a1.25 1.25 0 1 0 -2.5 0zM13.75 335 a1.25 1.25 0 1 0 2.5 0 a1.25 1.25 0 1 0 -2.5 0zM323.75 425 a1.25 1.25 0 1 0 2.5 0 a1.25 1.25 0 1 0 -2.5 0zM153.75 375 a1.25 1.25 0 1 0 2.5 0 a1.25 1.25 0 1 0 -2.5 0zM123.75 375 a1.25 1.25 0 1 0 2.5 0 a1.25 1.25 0 1 0 -2.5 0zM193.75 395 a1.25 1.25 0 1 0 2.5 0 a1.25 1.25 0 1 0 -2.5 0z" fill="black"></path><path d="M773.75 165 a1.25 1.25 0 1 0 2.5 0 a1.25 1.25 0 1 0 -2.5 0zM503.75 155 a1.25 1.25 0 1 0 2.5 0 a1.25 1.25 0 1 0 -2.5 0zM213.75 145 a1.25 1.25 0 1 0 2.5 0 a1.25 1.25 0 1 0 -2.5 0zM923.75 145 a1.25 1.25 0 1 0 2.5 0 a1.25 1.25 0 1 0 -2.5 0zM603.75 145 a1.25 1.25 0 1 0 2.5 0 a1.25 1.25 0 1 0 -2.5 0zM593.75 125 a1.25 1.25 0 1 0 2.5 0 a1.25 1.25 0 1 0 -2.5 0zM813.75 125 a1.25 1.25 0 1 0 2.5 0 a1.25 1.25 0 1 0 -2.5 0zM63.75 215 a1.25 1.25 0 1 0 2.5 0 a1.25 1.25 0 1 0 -2.5 0zM553.75 125 a1.25 1.25 0 1 0 2.5 0 a1.25 1.25 0 1 0 -2.5 0zM773.75 135 a1.25 1.25 0 1 0 2.5 0 a1.25 1.25 0 1 0 -2.5 0zM703.75 155 a1.25 1.25 0 1 0 2.5 0 a1.25 1.25 0 1 0 -2.5 0zM463.75 155 a1.25 1.25 0 1 0 2.5 0 a1.25 1.25 0 1 0 -2.5 0zM873.75 115 a1.25 1.25 0 1 0 2.5 0 a1.25 1.25 0 1 0 -2.5 0zM463.75 135 a1.25 1.25 0 1 0 2.5 0 a1.25 1.25 0 1 0 -2.5 0zM433.75 155 a1.25 1.25 0 1 0 2.5 0 a1.25 1.25 0 1 0 -2.5 0zM543.75 115 a1.25 1.25 0 1 0 2.5 0 a1.25 1.25 0 1 0 -2.5 0zM683.75 155 a1.25 1.25 0 1 0 2.5 0 a1.25 1.25 0 1 0 -2.5 0zM603.75 155 a1.25 1.25 0 1 0 2.5 0 a1.25 1.25 0 1 0 -2.5 0zM143.75 175 a1.25 1.25 0 1 0 2.5 0 a1.25 1.25 0 1 0 -2.5 0z" fill="black"></path><path d="M613.75 415 a1.25 1.25 0 1 0 2.5 0 a1.25 1.25 0 1 0 -2.5 0zM573.75 405 a1.25 1.25 0 1 0 2.5 0 a1.25 1.25 0 1 0 -2.5 0zM513.75 435 a1.25 1.25 0 1 0 2.5 0 a1.25 1.25 0 1 0 -2.5 0zM553.75 405 a1.25 1.25 0 1 0 2.5 0 a1.25 1.25 0 1 0 -2.5 0zM423.75 435 a1.25 1.25 0 1 0 2.5 0 a1.25 1.25 0 1 0 -2.5 0zM413.75 435 a1.25 1.25 0 1 0 2.5 0 a1.25 1.25 0 1 0 -2.5 0zM613.75 425 a1.25 1.25 0 1 0 2.5 0 a1.25 1.25 0 1 0 -2.5 0zM313.75 425 a1.25 1.25 0 1 0 2.5 0 a1.25 1.25 0 1 0 -2.5 0zM503.75 425 a1.25 1.25 0 1 0 2.5 0 a1.25 1.25 0 1 0 -2.5 0zM93.75 375 a1.25 1.25 0 1 0 2.5 0 a1.25 1.25 0 1 0 -2.5 0zM303.75 435 a1.25 1.25 0 1 0 2.5 0 a1.25 1.25 0 1 0 -2.5 0zM683.75 405 a1.25 1.25 0 1 0 2.5 0 a1.25 1.25 0 1 0 -2.5 0zM663.75 395 a1.25 1.25 0 1 0 2.5 0 a1.25 1.25 0 1 0 -2.5 0zM293.75 435 a1.25 1.25 0 1 0 2.5 0 a1.25 1.25 0 1 0 -2.5 0zM493.75 425 a1.25 1.25 0 1 0 2.5 0 a1.25 1.25 0 1 0 -2.5 0zM453.75 425 a1.25 1.25 0 1 0 2.5 0 a1.25 1.25 0 1 0 -2.5 0z" fill="black"></path><path d="M183.75 155 a1.25 1.25 0 1 0 2.5 0 a1.25 1.25 0 1 0 -2.5 0zM203.75 145 a1.25 1.25 0 1 0 2.5 0 a1.25 1.25 0 1 0 -2.5 0zM53.75 215 a1.25 1.25 0 1 0 2.5 0 a1.25 1.25 0 1 0 -2.5 0z" fill="black"></path><path d="M1013.75 445 a1.25 1.25 0 1 0 2.5 0 a1.25 1.25 0 1 0 -2.5 0zM903.75 425 a1.25 1.25 0 1 0 2.5 0 a1.25 1.25 0 1 0 -2.5 0zM1013.75 435 a1.25 1.25 0 1 0 2.5 0 a1.25 1.25 0 1 0 -2.5 0zM1013.75 425 a1.25 1.25 0 1 0 2.5 0 a1.25 1.25 0 1 0 -2.5 0zM993.75 465 a1.25 1.25 0 1 0 2.5 0 a1.25 1.25 0 1 0 -2.5 0zM693.75 435 a1.25 1.25 0 1 0 2.5 0 a1.25 1.25 0 1 0 -2.5 0zM723.75 465 a1.25 1.25 0 1 0 2.5 0 a1.25 1.25 0 1 0 -2.5 0zM913.75 425 a1.25 1.25 0 1 0 2.5 0 a1.25 1.25 0 1 0 -2.5 0zM1003.75 465 a1.25 1.25 0 1 0 2.5 0 a1.25 1.25 0 1 0 -2.5 0zM783.75 465 a1.25 1.25 0 1 0 2.5 0 a1.25 1.25 0 1 0 -2.5 0zM263.75 435 a1.25 1.25 0 1 0 2.5 0 a1.25 1.25 0 1 0 -2.5 0zM573.75 435 a1.25 1.25 0 1 0 2.5 0 a1.25 1.25 0 1 0 -2.5 0zM683.75 465 a1.25 1.25 0 1 0 2.5 0 a1.25 1.25 0 1 0 -2.5 0zM913.75 465 a1.25 1.25 0 1 0 2.5 0 a1.25 1.25 0 1 0 -2.5 0zM613.75 465 a1.25 1.25 0 1 0 2.5 0 a1.25 1.25 0 1 0 -2.5 0zM713.75 465 a1.25 1.25 0 1 0 2.5 0 a1.25 1.25 0 1 0 -2.5 0zM983.75 455 a1.25 1.25 0 1 0 2.5 0 a1.25 1.25 0 1 0 -2.5 0zM563.75 435 a1.25 1.25 0 1 0 2.5 0 a1.25 1.25 0 1 0 -2.5 0zM273.75 425 a1.25 1.25 0 1 0 2.5 0 a1.25 1.25 0 1 0 -2.5 0zM253.75 435 a1.25 1.25 0 1 0 2.5 0 a1.25 1.25 0 1 0 -2.5 0zM493.75 455 a1.25 1.25 0 1 0 2.5 0 a1.25 1.25 0 1 0 -2.5 0zM263.75 415 a1.25 1.25 0 1 0 2.5 0 a1.25 1.25 0 1 0 -2.5 0zM803.75 465 a1.25 1.25 0 1 0 2.5 0 a1.25 1.25 0 1 0 -2.5 0zM1013.75 455 a1.25 1.25 0 1 0 2.5 0 a1.25 1.25 0 1 0 -2.5 0zM283.75 435 a1.25 1.25 0 1 0 2.5 0 a1.25 1.25 0 1 0 -2.5 0zM893.75 475 a1.25 1.25 0 1 0 2.5 0 a1.25 1.25 0 1 0 -2.5 0z" fill="black"></path><path d="M783.75 65 a1.25 1.25 0 1 0 2.5 0 a1.25 1.25 0 1 0 -2.5 0zM353.75 125 a1.25 1.25 0 1 0 2.5 0 a1.25 1.25 0 1 0 -2.5 0zM543.75 105 a1.25 1.25 0 1 0 2.5 0 a1.25 1.25 0 1 0 -2.5 0zM763.75 125 a1.25 1.25 0 1 0 2.5 0 a1.25 1.25 0 1 0 -2.5 0zM733.75 95 a1.25 1.25 0 1 0 2.5 0 a1.25 1.25 0 1 0 -2.5 0zM963.75 65 a1.25 1.25 0 1 0 2.5 0 a1.25 1.25 0 1 0 -2.5 0zM493.75 115 a1.25 1.25 0 1 0 2.5 0 a1.25 1.25 0 1 0 -2.5 0zM663.75 95 a1.25 1.25 0 1 0 2.5 0 a1.25 1.25 0 1 0 -2.5 0zM443.75 95 a1.25 1.25 0 1 0 2.5 0 a1.25 1.25 0 1 0 -2.5 0zM443.75 115 a1.25 1.25 0 1 0 2.5 0 a1.25 1.25 0 1 0 -2.5 0zM503.75 95 a1.25 1.25 0 1 0 2.5 0 a1.25 1.25 0 1 0 -2.5 0zM733.75 65 a1.25 1.25 0 1 0 2.5 0 a1.25 1.25 0 1 0 -2.5 0zM303.75 125 a1.25 1.25 0 1 0 2.5 0 a1.25 1.25 0 1 0 -2.5 0zM133.75 155 a1.25 1.25 0 1 0 2.5 0 a1.25 1.25 0 1 0 -2.5 0zM743.75 125 a1.25 1.25 0 1 0 2.5 0 a1.25 1.25 0 1 0 -2.5 0zM653.75 125 a1.25 1.25 0 1 0 2.5 0 a1.25 1.25 0 1 0 -2.5 0zM593.75 75 a1.25 1.25 0 1 0 2.5 0 a1.25 1.25 0 1 0 -2.5 0zM693.75 95 a1.25 1.25 0 1 0 2.5 0 a1.25 1.25 0 1 0 -2.5 0zM1013.75 85 a1.25 1.25 0 1 0 2.5 0 a1.25 1.25 0 1 0 -2.5 0zM1013.75 75 a1.25 1.25 0 1 0 2.5 0 a1.25 1.25 0 1 0 -2.5 0zM343.75 125 a1.25 1.25 0 1 0 2.5 0 a1.25 1.25 0 1 0 -2.5 0z" fill="black"></path><path d="M233.75 435 a1.25 1.25 0 1 0 2.5 0 a1.25 1.25 0 1 0 -2.5 0zM233.75 425 a1.25 1.25 0 1 0 2.5 0 a1.25 1.25 0 1 0 -2.5 0z" fill="black"></path><path d="M93.75 175 a1.25 1.25 0 1 0 2.5 0 a1.25 1.25 0 1 0 -2.5 0z" fill="black"></path><path d="M573.75 465 a1.25 1.25 0 1 0 2.5 0 a1.25 1.25 0 1 0 -2.5 0zM523.75 475 a1.25 1.25 0 1 0 2.5 0 a1.25 1.25 0 1 0 -2.5 0zM423.75 465 a1.25 1.25 0 1 0 2.5 0 a1.25 1.25 0 1 0 -2.5 0zM473.75 475 a1.25 1.25 0 1 0 2.5 0 a1.25 1.25 0 1 0 -2.5 0zM113.75 415 a1.25 1.25 0 1 0 2.5 0 a1.25 1.25 0 1 0 -2.5 0zM603.75 475 a1.25 1.25 0 1 0 2.5 0 a1.25 1.25 0 1 0 -2.5 0zM563.75 475 a1.25 1.25 0 1 0 2.5 0 a1.25 1.25 0 1 0 -2.5 0zM393.75 465 a1.25 1.25 0 1 0 2.5 0 a1.25 1.25 0 1 0 -2.5 0zM463.75 455 a1.25 1.25 0 1 0 2.5 0 a1.25 1.25 0 1 0 -2.5 0zM453.75 465 a1.25 1.25 0 1 0 2.5 0 a1.25 1.25 0 1 0 -2.5 0zM443.75 465 a1.25 1.25 0 1 0 2.5 0 a1.25 1.25 0 1 0 -2.5 0zM553.75 475 a1.25 1.25 0 1 0 2.5 0 a1.25 1.25 0 1 0 -2.5 0z" fill="black"></path><path d="M283.75 125 a1.25 1.25 0 1 0 2.5 0 a1.25 1.25 0 1 0 -2.5 0zM263.75 135 a1.25 1.25 0 1 0 2.5 0 a1.25 1.25 0 1 0 -2.5 0zM233.75 135 a1.25 1.25 0 1 0 2.5 0 a1.25 1.25 0 1 0 -2.5 0zM73.75 165 a1.25 1.25 0 1 0 2.5 0 a1.25 1.25 0 1 0 -2.5 0z" fill="black"></path><path d="M1013.75 475 a1.25 1.25 0 1 0 2.5 0 a1.25 1.25 0 1 0 -2.5 0zM1013.75 485 a1.25 1.25 0 1 0 2.5 0 a1.25 1.25 0 1 0 -2.5 0zM1003.75 505 a1.25 1.25 0 1 0 2.5 0 a1.25 1.25 0 1 0 -2.5 0zM463.75 495 a1.25 1.25 0 1 0 2.5 0 a1.25 1.25 0 1 0 -2.5 0zM833.75 475 a1.25 1.25 0 1 0 2.5 0 a1.25 1.25 0 1 0 -2.5 0zM823.75 465 a1.25 1.25 0 1 0 2.5 0 a1.25 1.25 0 1 0 -2.5 0zM683.75 485 a1.25 1.25 0 1 0 2.5 0 a1.25 1.25 0 1 0 -2.5 0zM663.75 495 a1.25 1.25 0 1 0 2.5 0 a1.25 1.25 0 1 0 -2.5 0zM1003.75 485 a1.25 1.25 0 1 0 2.5 0 a1.25 1.25 0 1 0 -2.5 0zM763.75 475 a1.25 1.25 0 1 0 2.5 0 a1.25 1.25 0 1 0 -2.5 0zM423.75 495 a1.25 1.25 0 1 0 2.5 0 a1.25 1.25 0 1 0 -2.5 0zM653.75 495 a1.25 1.25 0 1 0 2.5 0 a1.25 1.25 0 1 0 -2.5 0zM653.75 475 a1.25 1.25 0 1 0 2.5 0 a1.25 1.25 0 1 0 -2.5 0zM643.75 475 a1.25 1.25 0 1 0 2.5 0 a1.25 1.25 0 1 0 -2.5 0zM743.75 475 a1.25 1.25 0 1 0 2.5 0 a1.25 1.25 0 1 0 -2.5 0zM703.75 465 a1.25 1.25 0 1 0 2.5 0 a1.25 1.25 0 1 0 -2.5 0zM633.75 475 a1.25 1.25 0 1 0 2.5 0 a1.25 1.25 0 1 0 -2.5 0zM413.75 475 a1.25 1.25 0 1 0 2.5 0 a1.25 1.25 0 1 0 -2.5 0zM383.75 465 a1.25 1.25 0 1 0 2.5 0 a1.25 1.25 0 1 0 -2.5 0zM623.75 475 a1.25 1.25 0 1 0 2.5 0 a1.25 1.25 0 1 0 -2.5 0z" fill="black"></path><path d="M363.75 125 a1.25 1.25 0 1 0 2.5 0 a1.25 1.25 0 1 0 -2.5 0zM293.75 105 a1.25 1.25 0 1 0 2.5 0 a1.25 1.25 0 1 0 -2.5 0zM333.75 115 a1.25 1.25 0 1 0 2.5 0 a1.25 1.25 0 1 0 -2.5 0zM323.75 105 a1.25 1.25 0 1 0 2.5 0 a1.25 1.25 0 1 0 -2.5 0zM363.75 115 a1.25 1.25 0 1 0 2.5 0 a1.25 1.25 0 1 0 -2.5 0zM383.75 105 a1.25 1.25 0 1 0 2.5 0 a1.25 1.25 0 1 0 -2.5 0zM53.75 165 a1.25 1.25 0 1 0 2.5 0 a1.25 1.25 0 1 0 -2.5 0zM403.75 95 a1.25 1.25 0 1 0 2.5 0 a1.25 1.25 0 1 0 -2.5 0zM263.75 105 a1.25 1.25 0 1 0 2.5 0 a1.25 1.25 0 1 0 -2.5 0zM43.75 175 a1.25 1.25 0 1 0 2.5 0 a1.25 1.25 0 1 0 -2.5 0z" fill="black"></path><path d="M403.75 495 a1.25 1.25 0 1 0 2.5 0 a1.25 1.25 0 1 0 -2.5 0zM393.75 495 a1.25 1.25 0 1 0 2.5 0 a1.25 1.25 0 1 0 -2.5 0zM303.75 485 a1.25 1.25 0 1 0 2.5 0 a1.25 1.25 0 1 0 -2.5 0zM243.75 485 a1.25 1.25 0 1 0 2.5 0 a1.25 1.25 0 1 0 -2.5 0zM273.75 475 a1.25 1.25 0 1 0 2.5 0 a1.25 1.25 0 1 0 -2.5 0zM293.75 485 a1.25 1.25 0 1 0 2.5 0 a1.25 1.25 0 1 0 -2.5 0zM43.75 415 a1.25 1.25 0 1 0 2.5 0 a1.25 1.25 0 1 0 -2.5 0zM363.75 485 a1.25 1.25 0 1 0 2.5 0 a1.25 1.25 0 1 0 -2.5 0zM253.75 475 a1.25 1.25 0 1 0 2.5 0 a1.25 1.25 0 1 0 -2.5 0zM343.75 485 a1.25 1.25 0 1 0 2.5 0 a1.25 1.25 0 1 0 -2.5 0zM333.75 485 a1.25 1.25 0 1 0 2.5 0 a1.25 1.25 0 1 0 -2.5 0z" fill="black"></path><path d="M323.75 95 a1.25 1.25 0 1 0 2.5 0 a1.25 1.25 0 1 0 -2.5 0zM343.75 85 a1.25 1.25 0 1 0 2.5 0 a1.25 1.25 0 1 0 -2.5 0zM163.75 105 a1.25 1.25 0 1 0 2.5 0 a1.25 1.25 0 1 0 -2.5 0zM123.75 115 a1.25 1.25 0 1 0 2.5 0 a1.25 1.25 0 1 0 -2.5 0zM243.75 105 a1.25 1.25 0 1 0 2.5 0 a1.25 1.25 0 1 0 -2.5 0zM143.75 105 a1.25 1.25 0 1 0 2.5 0 a1.25 1.25 0 1 0 -2.5 0zM283.75 85 a1.25 1.25 0 1 0 2.5 0 a1.25 1.25 0 1 0 -2.5 0z" fill="black"></path><path d="M943.75 515 a1.25 1.25 0 1 0 2.5 0 a1.25 1.25 0 1 0 -2.5 0zM1013.75 515 a1.25 1.25 0 1 0 2.5 0 a1.25 1.25 0 1 0 -2.5 0zM173.75 465 a1.25 1.25 0 1 0 2.5 0 a1.25 1.25 0 1 0 -2.5 0zM593.75 515 a1.25 1.25 0 1 0 2.5 0 a1.25 1.25 0 1 0 -2.5 0zM1013.75 525 a1.25 1.25 0 1 0 2.5 0 a1.25 1.25 0 1 0 -2.5 0zM573.75 515 a1.25 1.25 0 1 0 2.5 0 a1.25 1.25 0 1 0 -2.5 0zM693.75 495 a1.25 1.25 0 1 0 2.5 0 a1.25 1.25 0 1 0 -2.5 0zM143.75 465 a1.25 1.25 0 1 0 2.5 0 a1.25 1.25 0 1 0 -2.5 0zM623.75 515 a1.25 1.25 0 1 0 2.5 0 a1.25 1.25 0 1 0 -2.5 0zM263.75 485 a1.25 1.25 0 1 0 2.5 0 a1.25 1.25 0 1 0 -2.5 0zM563.75 515 a1.25 1.25 0 1 0 2.5 0 a1.25 1.25 0 1 0 -2.5 0zM223.75 475 a1.25 1.25 0 1 0 2.5 0 a1.25 1.25 0 1 0 -2.5 0zM203.75 475 a1.25 1.25 0 1 0 2.5 0 a1.25 1.25 0 1 0 -2.5 0zM453.75 515 a1.25 1.25 0 1 0 2.5 0 a1.25 1.25 0 1 0 -2.5 0zM473.75 505 a1.25 1.25 0 1 0 2.5 0 a1.25 1.25 0 1 0 -2.5 0zM733.75 505 a1.25 1.25 0 1 0 2.5 0 a1.25 1.25 0 1 0 -2.5 0zM713.75 495 a1.25 1.25 0 1 0 2.5 0 a1.25 1.25 0 1 0 -2.5 0zM523.75 505 a1.25 1.25 0 1 0 2.5 0 a1.25 1.25 0 1 0 -2.5 0zM923.75 495 a1.25 1.25 0 1 0 2.5 0 a1.25 1.25 0 1 0 -2.5 0zM913.75 505 a1.25 1.25 0 1 0 2.5 0 a1.25 1.25 0 1 0 -2.5 0zM813.75 515 a1.25 1.25 0 1 0 2.5 0 a1.25 1.25 0 1 0 -2.5 0zM573.75 495 a1.25 1.25 0 1 0 2.5 0 a1.25 1.25 0 1 0 -2.5 0zM23.75 415 a1.25 1.25 0 1 0 2.5 0 a1.25 1.25 0 1 0 -2.5 0zM373.75 495 a1.25 1.25 0 1 0 2.5 0 a1.25 1.25 0 1 0 -2.5 0zM143.75 455 a1.25 1.25 0 1 0 2.5 0 a1.25 1.25 0 1 0 -2.5 0z" fill="black"></path><path d="M363.75 75 a1.25 1.25 0 1 0 2.5 0 a1.25 1.25 0 1 0 -2.5 0zM253.75 75 a1.25 1.25 0 1 0 2.5 0 a1.25 1.25 0 1 0 -2.5 0zM103.75 125 a1.25 1.25 0 1 0 2.5 0 a1.25 1.25 0 1 0 -2.5 0zM193.75 75 a1.25 1.25 0 1 0 2.5 0 a1.25 1.25 0 1 0 -2.5 0zM133.75 105 a1.25 1.25 0 1 0 2.5 0 a1.25 1.25 0 1 0 -2.5 0zM183.75 75 a1.25 1.25 0 1 0 2.5 0 a1.25 1.25 0 1 0 -2.5 0zM113.75 115 a1.25 1.25 0 1 0 2.5 0 a1.25 1.25 0 1 0 -2.5 0zM93.75 135 a1.25 1.25 0 1 0 2.5 0 a1.25 1.25 0 1 0 -2.5 0zM373.75 65 a1.25 1.25 0 1 0 2.5 0 a1.25 1.25 0 1 0 -2.5 0zM403.75 45 a1.25 1.25 0 1 0 2.5 0 a1.25 1.25 0 1 0 -2.5 0z" fill="black"></path><path d="M683.75 525 a1.25 1.25 0 1 0 2.5 0 a1.25 1.25 0 1 0 -2.5 0zM693.75 515 a1.25 1.25 0 1 0 2.5 0 a1.25 1.25 0 1 0 -2.5 0zM543.75 535 a1.25 1.25 0 1 0 2.5 0 a1.25 1.25 0 1 0 -2.5 0zM433.75 535 a1.25 1.25 0 1 0 2.5 0 a1.25 1.25 0 1 0 -2.5 0zM83.75 455 a1.25 1.25 0 1 0 2.5 0 a1.25 1.25 0 1 0 -2.5 0zM703.75 535 a1.25 1.25 0 1 0 2.5 0 a1.25 1.25 0 1 0 -2.5 0zM273.75 515 a1.25 1.25 0 1 0 2.5 0 a1.25 1.25 0 1 0 -2.5 0zM573.75 545 a1.25 1.25 0 1 0 2.5 0 a1.25 1.25 0 1 0 -2.5 0zM633.75 545 a1.25 1.25 0 1 0 2.5 0 a1.25 1.25 0 1 0 -2.5 0zM523.75 545 a1.25 1.25 0 1 0 2.5 0 a1.25 1.25 0 1 0 -2.5 0zM453.75 535 a1.25 1.25 0 1 0 2.5 0 a1.25 1.25 0 1 0 -2.5 0zM583.75 535 a1.25 1.25 0 1 0 2.5 0 a1.25 1.25 0 1 0 -2.5 0zM323.75 515 a1.25 1.25 0 1 0 2.5 0 a1.25 1.25 0 1 0 -2.5 0zM263.75 525 a1.25 1.25 0 1 0 2.5 0 a1.25 1.25 0 1 0 -2.5 0zM273.75 535 a1.25 1.25 0 1 0 2.5 0 a1.25 1.25 0 1 0 -2.5 0zM503.75 535 a1.25 1.25 0 1 0 2.5 0 a1.25 1.25 0 1 0 -2.5 0zM643.75 525 a1.25 1.25 0 1 0 2.5 0 a1.25 1.25 0 1 0 -2.5 0zM143.75 495 a1.25 1.25 0 1 0 2.5 0 a1.25 1.25 0 1 0 -2.5 0z" fill="black"></path><path d="M323.75 65 a1.25 1.25 0 1 0 2.5 0 a1.25 1.25 0 1 0 -2.5 0zM303.75 55 a1.25 1.25 0 1 0 2.5 0 a1.25 1.25 0 1 0 -2.5 0zM173.75 75 a1.25 1.25 0 1 0 2.5 0 a1.25 1.25 0 1 0 -2.5 0zM383.75 35 a1.25 1.25 0 1 0 2.5 0 a1.25 1.25 0 1 0 -2.5 0zM83.75 115 a1.25 1.25 0 1 0 2.5 0 a1.25 1.25 0 1 0 -2.5 0zM213.75 55 a1.25 1.25 0 1 0 2.5 0 a1.25 1.25 0 1 0 -2.5 0zM363.75 35 a1.25 1.25 0 1 0 2.5 0 a1.25 1.25 0 1 0 -2.5 0zM163.75 85 a1.25 1.25 0 1 0 2.5 0 a1.25 1.25 0 1 0 -2.5 0zM63.75 115 a1.25 1.25 0 1 0 2.5 0 a1.25 1.25 0 1 0 -2.5 0z" fill="black"></path></mask></defs></svg>