<svg xmlns="http://www.w3.org/2000/svg" version="1.1" xmlns:xlink="http://www.w3.org/1999/xlink" xmlns:svgjs="http://svgjs.com/svgjs" width="2500" height="1009" preserveAspectRatio="none" viewBox="0 0 2500 1009"><g mask="url(&quot;#SvgjsMask2440&quot;)" fill="none"><rect width="2500" height="1009" x="0" y="0" fill="rgba(78, 135, 140, 1)"></rect><use xlink:href="#SvgjsG2460" transform="translate(0, 0)" fill="rgba(181, 255, 225, 1)"></use><use xlink:href="#SvgjsG2460" transform="translate(0, 460)" fill="rgba(0, 36, 27, 1)"></use><use xlink:href="#SvgjsG2460" transform="translate(0, 920)" fill="rgba(0, 36, 27, 1)"></use><use xlink:href="#SvgjsG2460" transform="translate(460, 0)" fill="rgba(147, 229, 171, 1)"></use><use xlink:href="#SvgjsG2460" transform="translate(460, 460)" fill="rgba(181, 255, 225, 1)"></use><use xlink:href="#SvgjsG2460" transform="translate(460, 920)" fill="rgba(0, 36, 27, 1)"></use><use xlink:href="#SvgjsG2460" transform="translate(920, 0)" fill="rgba(101, 184, 145, 1)"></use><use xlink:href="#SvgjsG2460" transform="translate(920, 460)" fill="rgba(0, 36, 27, 1)"></use><use xlink:href="#SvgjsG2460" transform="translate(920, 920)" fill="rgba(181, 255, 225, 1)"></use><use xlink:href="#SvgjsG2460" transform="translate(1380, 0)" fill="rgba(101, 184, 145, 1)"></use><use xlink:href="#SvgjsG2460" transform="translate(1380, 460)" fill="rgba(147, 229, 171, 1)"></use><use xlink:href="#SvgjsG2460" transform="translate(1380, 920)" fill="rgba(0, 36, 27, 1)"></use><use xlink:href="#SvgjsG2460" transform="translate(1840, 0)" fill="rgba(181, 255, 225, 1)"></use><use xlink:href="#SvgjsG2460" transform="translate(1840, 460)" fill="rgba(147, 229, 171, 1)"></use><use xlink:href="#SvgjsG2460" transform="translate(1840, 920)" fill="rgba(147, 229, 171, 1)"></use><use xlink:href="#SvgjsG2460" transform="translate(2300, 0)" fill="rgba(147, 229, 171, 1)"></use><use xlink:href="#SvgjsG2460" transform="translate(2300, 460)" fill="rgba(181, 255, 225, 1)"></use><use xlink:href="#SvgjsG2460" transform="translate(2300, 920)" fill="rgba(101, 184, 145, 1)"></use></g><defs><mask id="SvgjsMask2440"><rect width="2500" height="1009" fill="#ffffff"></rect></mask><g id="SvgjsG2444"><path d="M6.498 9.304L12.139 3.663l1.565 1.566-5.641 5.641z"></path><path d="M6.8 0.457h2.541v8.028H6.8z"></path><path d="M8.072 10.876L2.429 5.238l1.563-1.566L9.636 9.313zM1.2 13.277h13.733v2.266H1.2z"></path><path d="M0.733 9.143h2.267v6.4h-2.267z m12.267 0h2.267v6.4h-2.267z"></path></g><g id="SvgjsG2446"><path d="M7.713 15.485C3.459 15.485 0 12.025 0 7.768 0 3.513 3.459 0.051 7.713 0.051S15.432 3.513 15.432 7.768c0 4.257-3.465 7.716-7.719 7.717z m0-1.91c3.201 0 5.81-2.604 5.81-5.809 0-3.199-2.61-5.807-5.81-5.807-3.202 0-5.804 2.609-5.804 5.807-0.001 3.206 2.602 5.809 5.804 5.809z"></path><path d="M7.753 8.787a0.574 0.574 0 0 1-0.554-0.042 0.578 0.578 0 0 1-0.259-0.399L6.931 3.862a0.58 0.58 0 0 1 1.162 0v3.478l2.975-1.4a0.578 0.578 0 0 1 0.773 0.275c0.138 0.292 0.011 0.637-0.276 0.774l-3.81 1.798z"></path></g><g id="SvgjsG2448"><path d="M2.524 8.637H0.014V7.308h2.51v1.329zM3.656 4.576L1.884 2.804l0.935-0.935 1.772 1.772-0.935 0.935z m0 6.817l0.935 0.935-1.772 1.773-0.934-0.936 1.771-1.772z m4.997-8.884h-1.33V-0.002h1.33v2.511z m-1.33 10.952h1.33v2.51h-1.33v-2.509zM12.344 4.576l-0.96-0.935 1.796-1.772 0.935 0.935-1.772 1.772z m0 6.792l1.771 1.797-0.935 0.936-1.771-1.774 0.936-0.96z m3.643-4.06v1.329h-2.51V7.308h2.509z"></path><path d="M3.702 7.984a4.184 4.184 0 1 0 8.368 0 4.184 4.184 0 1 0-8.368 0"></path></g><g id="SvgjsG2453"><path d="M15.233 9.431c0.295 0 0.569-0.239 0.61-0.532 0 0 0.056-0.411 0.056-0.899s-0.056-0.899-0.056-0.899c-0.041-0.292-0.315-0.531-0.61-0.53h-1.524c-0.295 0-0.602-0.188-0.681-0.418s-0.188-0.967 0.021-1.176l1.078-1.077c0.209-0.209 0.225-0.565 0.036-0.792l-1.268-1.268c-0.227-0.189-0.583-0.173-0.792 0.036l-1.078 1.077c-0.208 0.209-0.556 0.293-0.772 0.187s-0.822-0.552-0.821-0.847V0.767c0-0.295-0.239-0.569-0.531-0.61 0 0-0.411-0.057-0.9-0.056s-0.899 0.057-0.899 0.056c-0.293 0.04-0.532 0.315-0.532 0.61v1.524c0 0.295-0.188 0.601-0.418 0.681s-0.967 0.188-1.176-0.021l-1.078-1.078C3.689 1.665 3.333 1.649 3.107 1.837l-1.268 1.268c-0.189 0.227-0.173 0.583 0.036 0.792l1.077 1.078c0.209 0.209 0.293 0.556 0.187 0.772s-0.552 0.822-0.847 0.822H0.767c-0.295 0-0.569 0.239-0.61 0.531 0 0-0.057 0.411-0.056 0.899s0.057 0.899 0.056 0.9c0.04 0.293 0.315 0.532 0.61 0.532h1.525c0.295 0 0.601 0.188 0.681 0.417 0.079 0.23 0.188 0.967-0.02 1.176l-1.078 1.077C1.667 12.311 1.651 12.667 1.84 12.893l1.267 1.268c0.227 0.189 0.583 0.173 0.792-0.036l1.077-1.077c0.209-0.208 0.556-0.292 0.772-0.187s0.821 0.553 0.822 0.848v1.524c0 0.295 0.239 0.569 0.532 0.61 0 0 0.411 0.057 0.899 0.057s0.899-0.056 0.899-0.057c0.293-0.04 0.531-0.315 0.532-0.609v-1.524c0-0.295 0.188-0.602 0.418-0.681 0.23-0.079 0.967-0.188 1.176 0.021l1.077 1.077c0.209 0.209 0.565 0.225 0.792 0.036l1.268-1.267c0.189-0.227 0.173-0.583-0.036-0.792l-1.078-1.077c-0.209-0.209-0.293-0.557-0.186-0.773 0.106-0.216 0.552-0.822 0.847-0.822h1.525zM8 10.892c-1.597 0-2.891-1.294-2.891-2.892 0-1.596 1.295-2.891 2.891-2.891S10.892 6.404 10.892 8 9.597 10.892 8 10.892z"></path></g><g id="SvgjsG2455"><path d="M12.209 8.39L12.048 5.996c-0.029-0.347-0.32-0.616-0.675-0.616H4.785a0.676 0.676 0 0 0-0.677 0.616l-0.157 2.395h8.258z m1.387 2.457c0-0.491-0.396-0.892-0.887-0.891a0.894 0.894 0 0 0-0.892 0.891c0 0.491 0.4 0.888 0.892 0.888s0.888-0.396 0.888-0.888M10.999 12.181V9.937a0.405 0.405 0 0 0-0.404-0.405h-5.048c-0.217 0-0.398 0.181-0.399 0.405V12.181h5.851z m-7.55-0.446a0.888 0.888 0 0 0 0.888-0.888c0-0.491-0.399-0.892-0.888-0.891-0.491 0-0.89 0.4-0.89 0.891a0.888 0.888 0 0 0 0.89 0.888M11.373 4.75c0.682 0 1.243 0.529 1.299 1.198l0.165 2.467L14.478 9.408l-0.004 4.168H13.741l0.004 1.363c0 0.59-0.477 1.061-1.065 1.061a1.058 1.058 0 0 1-1.06-1.061v-1.363H4.535l0.005 1.363c0 0.59-0.477 1.061-1.066 1.061a1.058 1.058 0 0 1-1.059-1.061v-1.363H1.684L1.68 9.408l1.641-0.992 0.165-2.468c0.052-0.669 0.613-1.198 1.299-1.197H11.373z"></path><path d="M13.301 0c0.648 0 1.172 0.525 1.173 1.169v7.567l-1.08-0.663-0.14-2.209c-0.097-0.952-0.904-1.697-1.881-1.698H4.784c-0.98 0-1.782 0.745-1.878 1.698l-0.143 2.209L1.68 8.736 1.684 1.169C1.684 0.525 2.208 0 2.852 0h10.449z"></path></g><g id="SvgjsG2442"><path d="M8.762 15.71c0.785-0.343 1.152-0.297 1.795 0.042 0.651 0.339 1.298 0.339 2.065-0.051 0.759-0.389 1.38-0.167 1.729 0.043 0.285 0.174 0.573 0.244 1.007 0.243v-1.553c-0.652-0.003-0.932-0.226-0.932-0.226-0.672-0.413-1.288-0.33-2.131 0.108-0.485 0.252-1.25 0.186-1.796-0.092-0.742-0.394-1.165-0.298-1.947 0.051-0.607 0.269-1.154 0.268-1.754 0-0.786-0.35-1.189-0.444-1.938-0.051-0.539 0.278-1.316 0.344-1.796 0.092-0.848-0.439-1.453-0.522-2.123-0.108 0 0-0.292 0.222-0.932 0.226v1.552c0.404 0 0.719-0.078 0.991-0.243 0.343-0.212 0.985-0.431 1.745-0.042 0.766 0.389 1.413 0.389 2.056 0.05 0.65-0.338 1.009-0.399 1.796-0.059 0.763 0.388 1.517 0.353 2.165 0.017z m5.672-3.768c-1.32-0.724-1.895 0.154-2.601 0.15V8.585l1.091-2.527c0.167-0.386 0.001-0.741-0.395-0.914l-0.663-0.268V2.694H10.582V1.544H8.795V0H6.571v1.544h-1.787v1.15h-1.284v2.182l-0.664 0.268c-0.397 0.173-0.563 0.528-0.394 0.915l1.091 2.526V12.093c-0.708 0.003-1.311-0.861-2.602-0.143 0 0-0.37 0.208-0.931 0.218v1.511c0.438-0.034 0.648-0.104 0.982-0.286 0.35-0.201 0.994-0.392 1.754 0 0.766 0.386 1.413 0.386 2.056 0.05 0.651-0.341 1.215-0.357 1.821-0.05 0.762 0.386 1.361 0.39 2.132 0.009 0.619-0.317 1.177-0.299 1.821 0.041 0.651 0.336 1.297 0.336 2.064-0.05 0.759-0.392 1.4-0.195 1.754 0 0.312 0.164 0.531 0.251 0.982 0.286V12.16c-0.574-0.015-0.932-0.218-0.932-0.218zM10.918 4.473l-3.239-1.334-3.231 1.334v-0.881h1.275v-1.133h3.919v1.133h1.276v0.881z"></path></g><g id="SvgjsG2449"><path d="M7.288 1.124a0.565 0.565 0 0 1-0.562-0.562C6.726 0.248 6.979-0.004 7.288 0a0.555 0.555 0 0 1 0.562 0.562c0.002 0.309-0.25 0.561-0.562 0.562z m1.498 0c0.31-0.001 0.562-0.253 0.562-0.562 0-0.313-0.252-0.565-0.562-0.562A0.556 0.556 0 0 0 8.224 0.562c-0.002 0.309 0.25 0.561 0.562 0.562z m2.231 11.366c0.78-0.13 1.557-0.944 1.555-1.938v-7.254c0.002-1.023-0.86-1.963-2.028-1.962H5.537c-1.174-0.001-2.036 0.939-2.035 1.962v7.255c-0.001 0.994 0.776 1.808 1.555 1.938L2.72 16h1.351l1.669-2.459H10.333L12.01 16h1.344L11.017 12.49zM6.718 2.085c0-0.182 0.155-0.331 0.333-0.334h1.972c0.179 0.003 0.334 0.152 0.334 0.334v0.57a0.334 0.334 0 0 1-0.334 0.334H7.052c-0.187 0-0.333-0.153-0.334-0.334v-0.57zM5.488 11.432a0.895 0.895 0 0 1-0.887-0.896c-0.001-0.491 0.398-0.89 0.887-0.887a0.891 0.891 0 0 1 0.896 0.887c-0.002 0.493-0.402 0.892-0.896 0.896z m0.114-4.714c-0.561-0.003-1.019-0.387-1.018-1.018v-1.303c0.004-0.544 0.355-1.017 1.018-1.018h4.869c0.664 0.001 1.015 0.474 1.018 1.018v1.302c0.002 0.631-0.456 1.015-1.018 1.018h-4.869zM9.674 10.536c-0.002-0.491 0.397-0.89 0.887-0.887a0.891 0.891 0 0 1 0.896 0.887c-0.003 0.493-0.402 0.892-0.896 0.896a0.894 0.894 0 0 1-0.887-0.895z"></path></g><g id="SvgjsG2458"><path d="M6.837 0.883c0.002-1.183 1.782-1.183 1.784 0.033v4.953L15.558 10.047v1.826L8.654 9.605V13.307l1.593 1.25V16L7.787 15.242 5.32 16v-1.443l1.584-1.25V9.605L0 11.873V10.047l6.837-4.178V0.883z"></path></g><g id="SvgjsG2452"><path d="M9.769 1.839L4.128 7.479l-1.566-1.565 5.641-5.641z"></path><path d="M6.926 2.658h2.54v8.028H6.926z"></path><path d="M8.194 0.267l5.643 5.638-1.563 1.566-5.644-5.641zM1.333 13.277h13.734v2.266H1.333z"></path><path d="M0.867 9.143h2.266v6.4h-2.266z m12.266 0h2.267v6.4h-2.267z"></path></g><g id="SvgjsG2447"><path d="M9.992 5.121c0 1.164-0.945 2.107-2.11 2.107-1.163 0-2.106-0.943-2.106-2.107 0-1.164 0.944-2.107 2.107-2.107 1.165 0 2.11 0.943 2.111 2.107z"></path><path d="M7.885 0c0.935 0 2.466 0.393 3.32 1.326L10.056 3.532a2.735 2.735 0 0 0-2.171-1.066 2.734 2.734 0 0 0-2.152 1.044L4.561 1.375C5.548 0.389 6.91 0 7.885 0z m-0.332 2.113h0.655V1.568h0.546V0.912h-0.546v-0.547h-0.655v0.547h-0.546V1.568h0.546v0.545z m-2.44 8.903h0.54L4.883 13.658h6.023l-0.768-2.642h0.54l0.772 2.641h1.773L12.013 9.654c-0.189-0.661-1.018-1.824-2.448-1.859l-3.287-0.003c-1.462 0.007-2.308 1.193-2.5 1.863L2.545 13.658h1.798l0.77-2.643zM0 14.5h15.767V16H0z"></path></g><g id="SvgjsG2445"><path d="M14.667 10.461V12.947h1.313V9.231H1.302V3.854A0.652 0.652 0 0 0 0.65 3.2C0.29 3.2 0 3.494 0 3.854V12.947h1.302V10.462h13.365z"></path><path d="M3.306 6.475a1.179 1.179 0 0 0 1.179-1.182c0-0.65-0.527-1.178-1.179-1.177s-1.179 0.528-1.179 1.177a1.179 1.179 0 0 0 1.18 1.182z"></path><path d="M16 8.254l-0.004-1.624c-0.004-0.515-0.437-0.871-0.94-0.932L5.79 4.774c-0.018-0.004-0.035-0.012-0.052-0.012a0.581 0.581 0 0 0-0.58 0.581v1.75H2.735a0.582 0.582 0 0 0-0.584 0.581c0 0.323 0.26 0.581 0.584 0.581H16z"></path></g><g id="SvgjsG2456"><path d="M5.93 13.874L13.4 6.4l2.074 2.08-7.47 7.468z"></path><path d="M6.328 0.04h3.366v12.752H6.328z"></path><path d="M8.014 15.96L0.54 8.486l2.07-2.072 7.476 7.47z"></path></g><g id="SvgjsG2441"><path d="M1.369 6.678L8.056 0l6.686 6.678V11.094L9.659 6.01V16H6.418V6.046L1.36 11.094z"></path></g><g id="SvgjsG2459"><path d="M13.88 10.08L6.414 2.608 8.484 0.536l7.472 7.47z"></path><path d="M0.048 6.314H12.8V9.68H0.046z"></path><path d="M15.966 7.994L8.496 15.468 6.424 13.4l7.47-7.48z"></path></g><g id="SvgjsG2454"><path d="M2.132 5.92l7.472 7.474-2.074 2.072L0.06 7.996z"></path><path d="M3.214 6.32h12.75v3.368H3.214z"></path><path d="M0.046 8.008L7.516 0.534l2.074 2.072L2.12 10.08z"></path></g><g id="SvgjsG2443"><path d="M1.396 3.591v6.948h-1.04A0.356 0.356 0 0 1 0 10.182V1.217C0 0.914 0.227 0.667 0.537 0.667h4.593C5.44 0.667 5.667 0.913 5.667 1.216v0.527h7.102c0.198 0 0.357 0.159 0.357 0.355v2.016h-6.064V3.587c0-0.303-0.226-0.549-0.537-0.55H1.933c-0.311 0-0.537 0.25-0.537 0.555z" fill-rule="evenodd"></path><path d="M15.918 14.746c0 0.197-0.159 0.355-0.357 0.355H3.149c-0.198 0-0.357-0.158-0.356-0.355V5.78c0-0.303 0.227-0.55 0.536-0.55h4.593c0.311 0 0.538 0.246 0.538 0.549v0.527h7.101c0.198 0 0.357 0.159 0.357 0.355v8.085z" fill-rule="evenodd"></path></g><g id="SvgjsG2457"><path d="M5.816 10.726V7.959c0-1.124 0.91-2.036 2.041-2.036 1.124 0 2.034 0.912 2.034 2.036v2.767H5.816z"></path><path d="M8.003 1.517c2.96 0 5.358 2.398 5.358 5.358v6.908h1.526l-0.004-6.908C14.883 3.078 11.8 0 8.003 0 4.205 0 1.124 3.078 1.124 6.875L1.12 13.788l1.524-0.004v-6.909c0-2.959 2.4-5.358 5.359-5.358"></path><path d="M8.269 11.318H7.438l-0.1 0.582h1.038l-0.107-0.582z m0.257 1.472h-1.337l-0.154 0.87h1.638l-0.146-0.87z m0.348 2.044H6.834L6.639 16h2.44l-0.205-1.166z"></path></g><g id="SvgjsG2451"><path d="M6.841 8.863l-0.614-1.566c-0.119-0.296-0.371-0.55-0.845-0.553h-0.875V6.336c0-0.161-0.09-0.244-0.23-0.245h-1.023c-0.146 0.002-0.235 0.085-0.238 0.245v0.407h-0.883c-0.471 0.003-0.723 0.257-0.837 0.553l-0.622 1.566c-0.243 0.03-0.676 0.312-0.675 0.846V11.696H0.598v0.637c0.001 0.779 1.13 0.77 1.129 0V11.696H5.789v0.637c0.001 0.77 1.13 0.779 1.128 0V11.696h0.607V9.708c-0.004-0.534-0.437-0.816-0.683-0.845zM1.182 10.483a0.529 0.529 0 0 1-0.522-0.53 0.529 0.529 0 0 1 0.523-0.53c0.288 0.003 0.522 0.239 0.523 0.53-0.001 0.291-0.234 0.527-0.522 0.53z m2.58-1.659H1.313l0.468-1.205c0.059-0.176 0.146-0.301 0.353-0.3h3.256c0.202-0.002 0.289 0.123 0.345 0.3l0.469 1.205h-2.442z m2.572 1.659c-0.285-0.003-0.519-0.239-0.522-0.53 0.003-0.291 0.237-0.527 0.522-0.53a0.526 0.526 0 0 1 0.522 0.53 0.527 0.527 0 0 1-0.521 0.53zM11.892 3.12c0.014 0 0.029 0.001 0.043 0.001 0.014 0 0.028-0.001 0.042-0.001h-0.085z m3.716 1.451c-0.112-0.541-0.463-0.757-0.99-0.975C14.099 3.385 12.856 3.13 11.935 3.121c-0.92 0.01-2.163 0.264-2.683 0.475-0.525 0.218-0.877 0.434-0.983 0.975l-0.4 2.994V11.696h0.683v0.645c-0.003 0.791 1.17 0.791 1.174 0V11.696h4.423v0.645c-0.003 0.791 1.17 0.791 1.166 0V11.696H16V7.565L15.608 4.571zM10.265 3.88h3.339c0.333-0.001 0.333 0.485 0 0.484h-3.339c-0.331 0.001-0.331-0.485 0-0.484zM9.136 10.398a0.553 0.553 0 0 1-0.56-0.552c-0.001-0.305 0.251-0.553 0.56-0.553 0.312 0 0.564 0.248 0.561 0.554 0.004 0.307-0.248 0.556-0.561 0.553z m2.757-2.518H8.914c-0.294 0.002-0.356-0.204-0.33-0.414l0.307-2.173c0.046-0.262 0.137-0.437 0.483-0.438h5.12c0.349 0.001 0.44 0.175 0.483 0.438l0.308 2.172c0.027 0.21-0.035 0.416-0.331 0.415H11.893z m2.84 2.518c-0.31 0.003-0.562-0.245-0.56-0.553-0.002-0.305 0.25-0.553 0.56-0.552 0.311 0 0.563 0.246 0.561 0.552 0.003 0.307-0.249 0.555-0.561 0.552z"></path></g><g id="SvgjsG2450"><path d="M12.16 7.692l-0.293 0.501s-0.053 0.108-0.223 0.108H10.791l-0.487-1.447c0.038-0.007 0.078-0.015 0.105-0.019 0.305-0.055 0.409-0.055 0.636 0.061 0 0 0.971 0.501 1.037 0.539 0.082 0.04 0.133 0.16 0.078 0.256z m-2.332-0.745l0.459 1.354H6.895c-0.074 0-0.152-0.044-0.152-0.16v-0.183c0-0.099 0.042-0.16 0.131-0.203 0.103-0.048 0.718-0.293 1.089-0.391a40.023 40.023 0 0 1 1.865-0.417z m1.789 3.792c0.442-0.07 1.276-0.204 1.755-0.34 0.208-0.053 0.419-0.268 0.48-0.392l1.144-1.744v2.183c0 0.246 0.366 0.246 0.366 0V8.193h0.156c0.438 0 0.438-0.657 0-0.657h-0.156V5.356c0-0.246-0.366-0.246-0.366 0v2.18h-0.106c-0.39-0.038-2.224-0.234-2.578-0.417-0.356-0.187-0.729-0.398-1.077-0.577-0.32-0.16-0.506-0.149-0.853-0.09-0.196 0.038-1.349 0.253-2.467 0.537-1.38 0.349-3.084 1.152-3.084 1.152l-1.948 0.007c-0.446-0.129-0.621-0.963-0.815-1.33L1.577 5.828c-0.036-0.082-0.126-0.107-0.211-0.11l-1.241-0.075c-0.187-0.011-0.116 0.145-0.09 0.235l0.851 3.337c0.089 0.373 0.607 0.729 0.971 0.767l5.013 0.769h0.063l4.685-0.012z" fill-rule="evenodd"></path></g><g id="SvgjsG2460"><use xlink:href="#SvgjsG2441" transform="translate(0, 0) scale(2.3)" fill="rgba(147, 229, 171, 1)"></use><use xlink:href="#SvgjsG2442" transform="translate(0, 46) scale(2.3)" fill="rgba(101, 184, 145, 1)"></use><use xlink:href="#SvgjsG2443" transform="translate(0, 92) scale(2.3)" fill="rgba(147, 229, 171, 1)"></use><use xlink:href="#SvgjsG2444" transform="translate(0, 138) scale(2.3)" fill="rgba(0, 36, 27, 1)"></use><use xlink:href="#SvgjsG2445" transform="translate(0, 184) scale(2.3)" fill="rgba(0, 36, 27, 1)"></use><use xlink:href="#SvgjsG2446" transform="translate(0, 230) scale(2.3)" fill="rgba(101, 184, 145, 1)"></use><use xlink:href="#SvgjsG2447" transform="translate(0, 276) scale(2.3)" fill="rgba(0, 36, 27, 1)"></use><use xlink:href="#SvgjsG2442" transform="translate(0, 322) scale(2.3)" fill="rgba(147, 229, 171, 1)"></use><use xlink:href="#SvgjsG2448" transform="translate(0, 368) scale(2.3)" fill="rgba(101, 184, 145, 1)"></use><use xlink:href="#SvgjsG2445" transform="translate(0, 414) scale(2.3)" fill="rgba(101, 184, 145, 1)"></use><use xlink:href="#SvgjsG2443" transform="translate(46, 0) scale(2.3)" fill="rgba(147, 229, 171, 1)"></use><use xlink:href="#SvgjsG2444" transform="translate(46, 46) scale(2.3)" fill="rgba(147, 229, 171, 1)"></use><use xlink:href="#SvgjsG2441" transform="translate(46, 92) scale(2.3)" fill="rgba(181, 255, 225, 1)"></use><use xlink:href="#SvgjsG2449" transform="translate(46, 138) scale(2.3)" fill="rgba(101, 184, 145, 1)"></use><use xlink:href="#SvgjsG2445" transform="translate(46, 184) scale(2.3)" fill="rgba(0, 36, 27, 1)"></use><use xlink:href="#SvgjsG2450" transform="translate(46, 230) scale(2.3)" fill="rgba(181, 255, 225, 1)"></use><use xlink:href="#SvgjsG2448" transform="translate(46, 276) scale(2.3)" fill="rgba(0, 36, 27, 1)"></use><use xlink:href="#SvgjsG2451" transform="translate(46, 322) scale(2.3)" fill="rgba(0, 36, 27, 1)"></use><use xlink:href="#SvgjsG2443" transform="translate(46, 368) scale(2.3)" fill="rgba(101, 184, 145, 1)"></use><use xlink:href="#SvgjsG2447" transform="translate(46, 414) scale(2.3)" fill="rgba(0, 36, 27, 1)"></use><use xlink:href="#SvgjsG2446" transform="translate(92, 0) scale(2.3)" fill="rgba(101, 184, 145, 1)"></use><use xlink:href="#SvgjsG2441" transform="translate(92, 46) scale(2.3)" fill="rgba(101, 184, 145, 1)"></use><use xlink:href="#SvgjsG2452" transform="translate(92, 92) scale(2.3)" fill="rgba(101, 184, 145, 1)"></use><use xlink:href="#SvgjsG2444" transform="translate(92, 138) scale(2.3)" fill="rgba(0, 36, 27, 1)"></use><use xlink:href="#SvgjsG2453" transform="translate(92, 184) scale(2.3)" fill="rgba(181, 255, 225, 1)"></use><use xlink:href="#SvgjsG2444" transform="translate(92, 230) scale(2.3)" fill="rgba(147, 229, 171, 1)"></use><use xlink:href="#SvgjsG2454" transform="translate(92, 276) scale(2.3)" fill="rgba(0, 36, 27, 1)"></use><use xlink:href="#SvgjsG2451" transform="translate(92, 322) scale(2.3)" fill="rgba(147, 229, 171, 1)"></use><use xlink:href="#SvgjsG2446" transform="translate(92, 368) scale(2.3)" fill="rgba(181, 255, 225, 1)"></use><use xlink:href="#SvgjsG2446" transform="translate(92, 414) scale(2.3)" fill="rgba(0, 36, 27, 1)"></use><use xlink:href="#SvgjsG2455" transform="translate(138, 0) scale(2.3)" fill="rgba(181, 255, 225, 1)"></use><use xlink:href="#SvgjsG2456" transform="translate(138, 46) scale(2.3)" fill="rgba(147, 229, 171, 1)"></use><use xlink:href="#SvgjsG2453" transform="translate(138, 92) scale(2.3)" fill="rgba(181, 255, 225, 1)"></use><use xlink:href="#SvgjsG2454" transform="translate(138, 138) scale(2.3)" fill="rgba(147, 229, 171, 1)"></use><use xlink:href="#SvgjsG2446" transform="translate(138, 184) scale(2.3)" fill="rgba(147, 229, 171, 1)"></use><use xlink:href="#SvgjsG2446" transform="translate(138, 230) scale(2.3)" fill="rgba(147, 229, 171, 1)"></use><use xlink:href="#SvgjsG2452" transform="translate(138, 276) scale(2.3)" fill="rgba(101, 184, 145, 1)"></use><use xlink:href="#SvgjsG2453" transform="translate(138, 322) scale(2.3)" fill="rgba(147, 229, 171, 1)"></use><use xlink:href="#SvgjsG2453" transform="translate(138, 368) scale(2.3)" fill="rgba(101, 184, 145, 1)"></use><use xlink:href="#SvgjsG2453" transform="translate(138, 414) scale(2.3)" fill="rgba(101, 184, 145, 1)"></use><use xlink:href="#SvgjsG2443" transform="translate(184, 0) scale(2.3)" fill="rgba(0, 36, 27, 1)"></use><use xlink:href="#SvgjsG2443" transform="translate(184, 46) scale(2.3)" fill="rgba(0, 36, 27, 1)"></use><use xlink:href="#SvgjsG2452" transform="translate(184, 92) scale(2.3)" fill="rgba(181, 255, 225, 1)"></use><use xlink:href="#SvgjsG2442" transform="translate(184, 138) scale(2.3)" fill="rgba(181, 255, 225, 1)"></use><use xlink:href="#SvgjsG2455" transform="translate(184, 184) scale(2.3)" fill="rgba(181, 255, 225, 1)"></use><use xlink:href="#SvgjsG2441" transform="translate(184, 230) scale(2.3)" fill="rgba(0, 36, 27, 1)"></use><use xlink:href="#SvgjsG2451" transform="translate(184, 276) scale(2.3)" fill="rgba(181, 255, 225, 1)"></use><use xlink:href="#SvgjsG2449" transform="translate(184, 322) scale(2.3)" fill="rgba(181, 255, 225, 1)"></use><use xlink:href="#SvgjsG2445" transform="translate(184, 368) scale(2.3)" fill="rgba(181, 255, 225, 1)"></use><use xlink:href="#SvgjsG2456" transform="translate(184, 414) scale(2.3)" fill="rgba(0, 36, 27, 1)"></use><use xlink:href="#SvgjsG2445" transform="translate(230, 0) scale(2.3)" fill="rgba(0, 36, 27, 1)"></use><use xlink:href="#SvgjsG2450" transform="translate(230, 46) scale(2.3)" fill="rgba(101, 184, 145, 1)"></use><use xlink:href="#SvgjsG2448" transform="translate(230, 92) scale(2.3)" fill="rgba(0, 36, 27, 1)"></use><use xlink:href="#SvgjsG2447" transform="translate(230, 138) scale(2.3)" fill="rgba(0, 36, 27, 1)"></use><use xlink:href="#SvgjsG2448" transform="translate(230, 184) scale(2.3)" fill="rgba(181, 255, 225, 1)"></use><use xlink:href="#SvgjsG2442" transform="translate(230, 230) scale(2.3)" fill="rgba(101, 184, 145, 1)"></use><use xlink:href="#SvgjsG2450" transform="translate(230, 276) scale(2.3)" fill="rgba(101, 184, 145, 1)"></use><use xlink:href="#SvgjsG2445" transform="translate(230, 322) scale(2.3)" fill="rgba(101, 184, 145, 1)"></use><use xlink:href="#SvgjsG2447" transform="translate(230, 368) scale(2.3)" fill="rgba(147, 229, 171, 1)"></use><use xlink:href="#SvgjsG2445" transform="translate(230, 414) scale(2.3)" fill="rgba(0, 36, 27, 1)"></use><use xlink:href="#SvgjsG2457" transform="translate(276, 0) scale(2.3)" fill="rgba(181, 255, 225, 1)"></use><use xlink:href="#SvgjsG2454" transform="translate(276, 46) scale(2.3)" fill="rgba(147, 229, 171, 1)"></use><use xlink:href="#SvgjsG2443" transform="translate(276, 92) scale(2.3)" fill="rgba(181, 255, 225, 1)"></use><use xlink:href="#SvgjsG2446" transform="translate(276, 138) scale(2.3)" fill="rgba(147, 229, 171, 1)"></use><use xlink:href="#SvgjsG2447" transform="translate(276, 184) scale(2.3)" fill="rgba(0, 36, 27, 1)"></use><use xlink:href="#SvgjsG2444" transform="translate(276, 230) scale(2.3)" fill="rgba(0, 36, 27, 1)"></use><use xlink:href="#SvgjsG2456" transform="translate(276, 276) scale(2.3)" fill="rgba(147, 229, 171, 1)"></use><use xlink:href="#SvgjsG2458" transform="translate(276, 322) scale(2.3)" fill="rgba(181, 255, 225, 1)"></use><use xlink:href="#SvgjsG2441" transform="translate(276, 368) scale(2.3)" fill="rgba(0, 36, 27, 1)"></use><use xlink:href="#SvgjsG2456" transform="translate(276, 414) scale(2.3)" fill="rgba(101, 184, 145, 1)"></use><use xlink:href="#SvgjsG2441" transform="translate(322, 0) scale(2.3)" fill="rgba(147, 229, 171, 1)"></use><use xlink:href="#SvgjsG2458" transform="translate(322, 46) scale(2.3)" fill="rgba(147, 229, 171, 1)"></use><use xlink:href="#SvgjsG2457" transform="translate(322, 92) scale(2.3)" fill="rgba(147, 229, 171, 1)"></use><use xlink:href="#SvgjsG2458" transform="translate(322, 138) scale(2.3)" fill="rgba(181, 255, 225, 1)"></use><use xlink:href="#SvgjsG2457" transform="translate(322, 184) scale(2.3)" fill="rgba(101, 184, 145, 1)"></use><use xlink:href="#SvgjsG2445" transform="translate(322, 230) scale(2.3)" fill="rgba(0, 36, 27, 1)"></use><use xlink:href="#SvgjsG2446" transform="translate(322, 276) scale(2.3)" fill="rgba(147, 229, 171, 1)"></use><use xlink:href="#SvgjsG2445" transform="translate(322, 322) scale(2.3)" fill="rgba(0, 36, 27, 1)"></use><use xlink:href="#SvgjsG2447" transform="translate(322, 368) scale(2.3)" fill="rgba(101, 184, 145, 1)"></use><use xlink:href="#SvgjsG2450" transform="translate(322, 414) scale(2.3)" fill="rgba(147, 229, 171, 1)"></use><use xlink:href="#SvgjsG2449" transform="translate(368, 0) scale(2.3)" fill="rgba(0, 36, 27, 1)"></use><use xlink:href="#SvgjsG2455" transform="translate(368, 46) scale(2.3)" fill="rgba(101, 184, 145, 1)"></use><use xlink:href="#SvgjsG2459" transform="translate(368, 92) scale(2.3)" fill="rgba(0, 36, 27, 1)"></use><use xlink:href="#SvgjsG2441" transform="translate(368, 138) scale(2.3)" fill="rgba(101, 184, 145, 1)"></use><use xlink:href="#SvgjsG2446" transform="translate(368, 184) scale(2.3)" fill="rgba(101, 184, 145, 1)"></use><use xlink:href="#SvgjsG2441" transform="translate(368, 230) scale(2.3)" fill="rgba(181, 255, 225, 1)"></use><use xlink:href="#SvgjsG2441" transform="translate(368, 276) scale(2.3)" fill="rgba(101, 184, 145, 1)"></use><use xlink:href="#SvgjsG2456" transform="translate(368, 322) scale(2.3)" fill="rgba(181, 255, 225, 1)"></use><use xlink:href="#SvgjsG2453" transform="translate(368, 368) scale(2.3)" fill="rgba(101, 184, 145, 1)"></use><use xlink:href="#SvgjsG2450" transform="translate(368, 414) scale(2.3)" fill="rgba(101, 184, 145, 1)"></use><use xlink:href="#SvgjsG2459" transform="translate(414, 0) scale(2.3)" fill="rgba(101, 184, 145, 1)"></use><use xlink:href="#SvgjsG2443" transform="translate(414, 46) scale(2.3)" fill="rgba(101, 184, 145, 1)"></use><use xlink:href="#SvgjsG2452" transform="translate(414, 92) scale(2.3)" fill="rgba(181, 255, 225, 1)"></use><use xlink:href="#SvgjsG2456" transform="translate(414, 138) scale(2.3)" fill="rgba(101, 184, 145, 1)"></use><use xlink:href="#SvgjsG2448" transform="translate(414, 184) scale(2.3)" fill="rgba(0, 36, 27, 1)"></use><use xlink:href="#SvgjsG2449" transform="translate(414, 230) scale(2.3)" fill="rgba(147, 229, 171, 1)"></use><use xlink:href="#SvgjsG2448" transform="translate(414, 276) scale(2.3)" fill="rgba(181, 255, 225, 1)"></use><use xlink:href="#SvgjsG2446" transform="translate(414, 322) scale(2.3)" fill="rgba(0, 36, 27, 1)"></use><use xlink:href="#SvgjsG2449" transform="translate(414, 368) scale(2.3)" fill="rgba(101, 184, 145, 1)"></use><use xlink:href="#SvgjsG2453" transform="translate(414, 414) scale(2.3)" fill="rgba(0, 36, 27, 1)"></use></g></defs></svg>